<svg xmlns="http://www.w3.org/2000/svg" width="100" height="100" viewBox="0 0 100 100"><g fill="rgba(0,0,0,0)" stroke="rgba(0,0,0,0)" stroke-width="1"><rect width="100" height="100" stroke="none"/><rect x="0.5" y="0.5" width="99" height="99" fill="none"/></g><path d="M25.5,4l2.5.5L25.5,5Z" fill="#fff"/><path d="M32.5,4l2.5.5L32.5,5Z" fill="#fff"/><path d="M46.5,4l1,2Z" fill="rgba(0,0,0,0.21)"/><path d="M15.5,8l-1,2Z" fill="rgba(0,0,0,0.21)"/><path d="M44.5,8l1,2Z" fill="rgba(0,0,0,0.21)"/><path d="M9.5,14l-1,2Z" fill="rgba(0,0,0,0.21)"/><path d="M50.5,14l1,2Z" fill="rgba(0,0,0,0.21)"/><path d="M54.5,22l1,2Z" fill="rgba(0,0,0,0.21)"/><path d="M4.5,25,5,27.5H4Z" fill="#fff"/><path d="M25.5,31l-7,8Z" fill="rgba(0,0,0,0.21)"/><path d="M4.5,32,5,34.5H4Z" fill="#fff"/><path d="M28.5,34l-7,8Z" fill="rgba(0,0,0,0.21)"/><path d="M18.5,40l1,2Z" fill="rgba(0,0,0,0.21)"/><path d="M8.5,44l1,2Z" fill="rgba(0,0,0,0.21)"/><path d="M14.5,50l1,2Z" fill="rgba(0,0,0,0.21)"/><path d="M61.5,54,62,77.5H61Z" fill="#fff"/><path d="M25.5,55l2.5.5-2.5.5Z" fill="#fff"/><path d="M32.5,55q3.8-.7,4.5,1.5L35.5,56Q31.5,56.8,32.5,55Z" fill="#fff"/><path d="M36.5,58l-1,2Z" fill="rgba(0,0,0,0.21)"/><path d="M56.5,82l5.5.5-5.5.5Z" fill="#fff"/><path d="M0,0,23,.5Q10.6,3.1,5,12.5L.5,23Z" fill="rgba(0,0,0,0)"/><path d="M37.5,0H100V95.5H99l-35-62L59.5,28,56,30.5l-36,62L18,100H.5L0,99.5v-62H1Q3.1,49.9,12.5,55l11,5h12L37,56.5q-.7-2.2-4.5-1.5l-4,1-12-4L10,46.5Q4.5,40,4,28.5l4-12L13.5,10q6.5-5.5,18-6l1.931.644L43.5,8,50,13.5,55.5,24q5.3,1.8,3.5-3.5A32.053,32.053,0,0,0,46.5,4l-9-3ZM28,10V27l-2,4-8,8,2,3h2L34,32q1-5-2-5V11Z" fill="rgba(0,0,0,0)"/><path d="M58,36q2.7-1.1,2,1.5l34,58L24.5,96l.5-1.5ZM56,54V78h6V54Zm0,28v6h6V82Z" fill="rgba(0,0,0,0)"/><path d="M25.5,0,28,.5,25.5,1Z" fill="#fff"/><path d="M33.5,0,36,.5,33.5,1Z" fill="#fff"/><path d="M11.5,6l-5,6Z" fill="rgba(0,0,0,0.75)"/><path d="M48.5,6l5,6Z" fill="rgba(0,0,0,0.75)"/><path d="M13.5,9l-4,5Z" fill="rgba(0,0,0,0.75)"/><path d="M46.5,9l4,5Z" fill="rgba(0,0,0,0.75)"/><path d="M58.5,21l.5,1.5-2,1Z" fill="#fff"/><path d="M58.5,28,61,29.5,59.5,29l-2,1Z" fill="#fff"/><path d="M10.5,47l2,3Z" fill="rgba(0,0,0,0.75)"/><path d="M6.5,48l5,6Z" fill="rgba(0,0,0,0.75)"/><path d="M56.5,54,57,77.5H56Z" fill="#fff"/><path d="M25.5,59l2.5.5-2.5.5Z" fill="#fff"/><path d="M32.5,59l2.5.5-2.5.5Z" fill="#fff"/><path d="M56.5,83l.5,4.5H56Z" fill="#fff"/><path d="M61.5,83l.5,4.5H61Z" fill="#fff"/><path d="M28.5,0,33,.5,28.5,1Z" fill="#fff"/><path d="M13.5,5l-1,2Z" fill="rgba(0,0,0,1)"/><path d="M29.5,10,32,11.5,30.5,11l-2,1Z" fill="#fff"/><path d="M6.5,12l-1,2Z" fill="rgba(0,0,0,1)"/><path d="M55.5,22l1,2Z" fill="rgba(0,0,0,1)"/><path d="M.5,27,1,32.5H0Z" fill="#fff"/><path d="M26.5,31l-7,8Z" fill="rgba(0,0,0,1)"/><path d="M32.5,31l-1,2Z" fill="rgba(0,0,0,1)"/><path d="M28.5,33l-7,8Z" fill="rgba(0,0,0,1)"/><path d="M8.5,45l1,2Z" fill="rgba(0,0,0,1)"/><path d="M5.5,46l1,2Z" fill="rgba(0,0,0,1)"/><path d="M13.5,50l1,2Z" fill="rgba(0,0,0,1)"/><path d="M12.5,53l1,2Z" fill="rgba(0,0,0,1)"/><path d="M28.5,59l3.5.5-3.5.5Z" fill="#fff"/><path d="M23.5,1Q46.3-.8,54,12.5A15.992,15.992,0,0,1,58,23l-3-1.5Q52.5,12.4,45.5,8q-7-6-22-4Q13.3,6.8,8,14.5q-6,7-4,22Q6.8,46.8,14.5,52l9,4h11L36,57.5,35.5,59h-12Q12.6,56.4,7,48.5l-6-12v-13Q3.6,12.6,11.5,7Z" fill="#fff"/><path d="M29.5,11,32,12.5v15l1,3L19,41l8-9.5q2.5-7.5,1-19Z" fill="#fff"/><path d="M58.5,29,61,30.5l37,64,1,4L97.5,100h-77L19,96.5ZM58,34,24,95v1H95L60,36Q61,33,58,34Z" fill="#fff"/><path d="M57,54l4,1.5v21L59.5,78,57,77.5Z" fill="#fff"/><path d="M57,83q6.4-2.1,4,5Q54.6,90.1,57,83Z" fill="#fff"/></svg>