<svg xmlns="http://www.w3.org/2000/svg" width="100" height="100" viewBox="0 0 100 100"><g fill="rgba(0,0,0,0)" stroke="rgba(0,0,0,0)" stroke-width="1"><rect width="100" height="100" stroke="none"/><rect x="0.5" y="0.5" width="99" height="99" fill="none"/></g><path d="M2.5,0,.5,3Z" fill="rgba(0,0,0,0.16)"/><path d="M85.5,0l2,3Z" fill="rgba(0,0,0,0.16)"/><path d="M90.5,62l1,2Z" fill="rgba(0,0,0,0.16)"/><path d="M89.5,67l3,4Z" fill="rgba(0,0,0,0.16)"/><path d="M63.5,68l-1,2Z" fill="rgba(0,0,0,0.16)"/><path d="M69.5,68l-2,3Z" fill="rgba(0,0,0,0.16)"/><path d="M96.5,68l1,2Z" fill="rgba(0,0,0,0.16)"/><path d="M73.5,70l5,6Z" fill="rgba(0,0,0,0.16)"/><path d="M70.5,73l5,6Z" fill="rgba(0,0,0,0.16)"/><path d="M64.5,76l.5,2.5H64Z" fill="#fff"/><path d="M82.5,76l1,2Z" fill="rgba(0,0,0,0.16)"/><path d="M64.5,81l.5,2.5H64Z" fill="#fff"/><path d="M95.5,81l.5,2.5H95Z" fill="#fff"/><path d="M76.5,82l1,2Z" fill="rgba(0,0,0,0.16)"/><path d="M83.5,82l-1,2Z" fill="rgba(0,0,0,0.16)"/><path d="M66.5,88l1,2Z" fill="rgba(0,0,0,0.16)"/><path d="M92.5,89l-3,4Z" fill="rgba(0,0,0,0.16)"/><path d="M62.5,90l1,2Z" fill="rgba(0,0,0,0.16)"/><path d="M97.5,90l-1,2Z" fill="rgba(0,0,0,0.16)"/><path d="M69.5,91l1,2Z" fill="rgba(0,0,0,0.16)"/><path d="M76.5,95l2.5.5-2.5.5Z" fill="#fff"/><path d="M81.5,95l2.5.5-2.5.5Z" fill="#fff"/><path d="M68.5,96l1,2Z" fill="rgba(0,0,0,0.16)"/><path d="M91.5,96l-1,2Z" fill="rgba(0,0,0,0.16)"/><path d="M0,0,2,.5l-2,1Z" fill="rgba(0,0,0,0)"/><path d="M86.5,0h13l.5.5v73H99l-1-4L90.5,62Q85.9,58.9,78,60v8h4q-1.7-4.1,2.5-3L94,72.5l2,8-2,7L87.5,94l-8,2-5-1L68,91l-3-5.5-1-6,.4-1.414L66,72.5l4-4v-3L67.5,64Q58,69,60,85.5q2.4,8.6,9.5,12.5L74,99.5,0,100V82H55.5l.5-4H4V18H84V55.5l4,.5V2.5ZM14,30v4h8V30Zm14,0,1,4H74V30ZM14,40v4h8V40Zm14,0,1,4H74V40ZM14,50v4h8V50Zm14,0,1,4H74V50ZM14,60v4h8V60Zm14,0v4H63l4-3ZM70,70v4l6,6v3q1,2,7,1,2-1,1-6-1-3-4-2l-6-6Z" fill="rgba(0,0,0,0)"/><path d="M5.5,4h77L84,5.5v8l-.5.5H4V5.5Z" fill="rgba(0,0,0,0)"/><path d="M99.5,86l.5,14-14-.5q8.6-1.9,12-9Z" fill="rgba(0,0,0,0)"/><path d="M73.5,71l5,6Z" fill="rgba(0,0,0,0.99)"/><path d="M71.5,73l5,6Z" fill="rgba(0,0,0,0.99)"/><path d="M6.5,0h75L87,3.5l1,3v47L85.5,55,84,53.5V18H4V78H53.5L55,79.5,53.5,82H2.5L0,79.5V6.5L3.5,1ZM4,4V14H84V4Z" fill="#fff"/><path d="M14,30h8v4H14Z" fill="#fff"/><path d="M28,30H73.5l.5,4H28.5Z" fill="#fff"/><path d="M14,40h8v4H14Z" fill="#fff"/><path d="M28,40H73.5l.5,4H28.5Z" fill="#fff"/><path d="M14,50h8v4H14Z" fill="#fff"/><path d="M28,50H73.5l.5,4H28.5Z" fill="#fff"/><path d="M14,60h8v4H14Z" fill="#fff"/><path d="M28,60l37,.5L61.5,64H28Z" fill="#fff"/><path d="M78,60q2.1,1.6,7.5,1A20.5,20.5,0,0,1,96,68.5q4.8,5.2,3,17A19.778,19.778,0,0,1,91.5,96q-5.2,4.8-17,3A20.3,20.3,0,0,1,64,91.5q-4.8-5.2-3-17L67.5,65q2.6-.8,1.5,2.5-7.3,4.2-5,18L70.5,94q4.7,3.8,15,2L94,89.5q3.8-4.7,2-15L90.5,67,82,64l-1.5,3L78,65.5Z" fill="#fff"/><path d="M71,71l7.5,6q3.8-.7,4.5,1.5.8,3.8-1.5,4.5-3.7.8-4.5-1.5v-3Z" fill="#fff"/><path d="M2.5,1l-1,2Z" fill="rgba(0,0,0,0.94)"/><path d="M85.5,1l1,2Z" fill="rgba(0,0,0,0.94)"/><path d="M84.5,54l2,1,1.5-.5L85.5,56Z" fill="#fff"/><path d="M78.5,66l2,1,1.5-.5L79.5,68Z" fill="#fff"/><path d="M90.5,67l2,3Z" fill="rgba(0,0,0,0.94)"/><path d="M68.5,68l-1,2Z" fill="rgba(0,0,0,0.94)"/><path d="M71.5,70l1.5.5L71,71l-.5,2L70,71.5Z" fill="#fff"/><path d="M54.5,78,56,80.5l-2,1,1-2Z" fill="#fff"/><path d="M.5,80l1,2Z" fill="rgba(0,0,0,0.94)"/><path d="M66.5,89l1,2Z" fill="rgba(0,0,0,0.94)"/><path d="M93.5,89l-1,2Z" fill="rgba(0,0,0,0.94)"/><path d="M69.5,92l1,2Z" fill="rgba(0,0,0,0.94)"/><path d="M90.5,92l-1,2Z" fill="rgba(0,0,0,0.94)"/><path d="M64.5,61l-2,3Z" fill="rgba(0,0,0,0.67)"/><path d="M92.5,64l3,4Z" fill="rgba(0,0,0,0.67)"/><path d="M66.5,65l-2,3Z" fill="rgba(0,0,0,0.67)"/><path d="M64.5,92l3,4Z" fill="rgba(0,0,0,0.67)"/><path d="M95.5,92l-3,4Z" fill="rgba(0,0,0,0.67)"/></svg>