<svg xmlns="http://www.w3.org/2000/svg" width="100" height="100" viewBox="0 0 100 100"><g fill="rgba(0,0,0,0)" stroke="rgba(0,0,0,0)" stroke-width="1"><rect width="100" height="100" stroke="none"/><rect x="0.5" y="0.5" width="99" height="99" fill="none"/></g><path d="M3.5,0,5,.5l-4,3L.5,5,0,3.5Z" fill="#f1c40f"/><path d="M83.5,0,88,3.5,87.5,5l-3-4Z" fill="#f1c40f"/><path d="M89.5,62l1,2Z" fill="rgba(0,0,0,0.82)"/><path d="M68.5,63l-1,2Z" fill="rgba(0,0,0,0.82)"/><path d="M92.5,64l3,4Z" fill="rgba(0,0,0,0.82)"/><path d="M78.5,66l2,1,1.5-.5L79.5,68Z" fill="#f1c40f"/><path d="M69.5,67l-2,3Z" fill="rgba(0,0,0,0.82)"/><path d="M96.5,69l1,2Z" fill="rgba(0,0,0,0.82)"/><path d="M93.5,71l1,2Z" fill="rgba(0,0,0,0.82)"/><path d="M99.5,76l.5,2.5H99Z" fill="#f1c40f"/><path d="M.5,80l1,2Z" fill="rgba(0,0,0,0.82)"/><path d="M67.5,90l2,3Z" fill="rgba(0,0,0,0.82)"/><path d="M92.5,90l-2,3Z" fill="rgba(0,0,0,0.82)"/><path d="M64.5,92l3,4Z" fill="rgba(0,0,0,0.82)"/><path d="M95.5,92l-3,4Z" fill="rgba(0,0,0,0.82)"/><path d="M5.5,0h77L87,3.5,88,14H.5L0,13.5v-8L3.5,1Z" fill="#f1c40f"/><path d="M0,18H88V61.5l8,7q3.8,4.7,4,13Q98.4,92.4,90.5,97l-12,3Q67.6,98.4,63,90.5L61,82H2.5L0,79.5ZM14,30v4h8V30Zm14,0,1,4H74V30ZM14,40v4h8V40Zm14,0,1,4H74V40ZM14,50v4h8V50Zm14,0,1,4H74V50ZM14,60v4h8V60Zm14,0v4H63l4-3Zm47,0-8,5,3,2-6,9q-1,10,3,15l9,5q10,2,15-3l5-8L95,73a15.607,15.607,0,0,0-13-9l-1,3-3-1Q81,58,75,60Z" fill="#f1c40f"/><path d="M71.5,70l7,6L83,77l1,3.5L83,83l-3.5,1L77,83l-1-4.5-6-7Z" fill="#f1c40f"/><path d="M65.5,60l-3,4Z" fill="rgba(0,0,0,0.19)"/><path d="M89.5,67l3,4Z" fill="rgba(0,0,0,0.19)"/><path d="M67.5,70l-1,2Z" fill="rgba(0,0,0,0.19)"/><path d="M73.5,70l5,6Z" fill="rgba(0,0,0,0.19)"/><path d="M70.5,73l5,6Z" fill="rgba(0,0,0,0.19)"/><path d="M82.5,76l1,2Z" fill="rgba(0,0,0,0.19)"/><path d="M95.5,76l.5,2.5H95Z" fill="#f1c40f"/><path d="M76.5,82l1,2Z" fill="rgba(0,0,0,0.19)"/><path d="M83.5,82l-1,2Z" fill="rgba(0,0,0,0.19)"/><path d="M66.5,88l1,2Z" fill="rgba(0,0,0,0.19)"/><path d="M93.5,88l-1,2Z" fill="rgba(0,0,0,0.19)"/><path d="M70.5,92l1,2Z" fill="rgba(0,0,0,0.19)"/><path d="M89.5,92l-1,2Z" fill="rgba(0,0,0,0.19)"/><path d="M0,0,3,.5,1,1,.5,3Z" fill="rgba(0,0,0,0)"/><path d="M85.5,0h14l.5.5v73H99A15.965,15.965,0,0,0,91.5,63L88,60.5V18H.5L0,14H87.5l.5-.5V3.5L87,1Z" fill="rgba(0,0,0,0)"/><path d="M14,30h8v4H14Z" fill="rgba(0,0,0,0)"/><path d="M28,30H73.5l.5,4H28.5Z" fill="rgba(0,0,0,0)"/><path d="M14,40h8v4H14Z" fill="rgba(0,0,0,0)"/><path d="M28,40H73.5l.5,4H28.5Z" fill="rgba(0,0,0,0)"/><path d="M14,50h8v4H14Z" fill="rgba(0,0,0,0)"/><path d="M28,50H73.5l.5,4H28.5Z" fill="rgba(0,0,0,0)"/><path d="M14,60h8v4H14Z" fill="rgba(0,0,0,0)"/><path d="M28,60l37,.5L61.5,64H28Z" fill="rgba(0,0,0,0)"/><path d="M74.5,61H78v7h4q-1.7-4.1,2.5-3L94,72.5l2,9Q94.8,88.3,90.5,92q-4,4-12,4A17.644,17.644,0,0,1,68,90.5q-4-4-4-12l6-13L69,63ZM70,70v4l6,6v3q1,2,7,1,2-1,1-6-1-3-4-2l-6-6Z" fill="rgba(0,0,0,0)"/><path d="M0,82H59.5l.5,3.5A22.719,22.719,0,0,0,68.5,97L74,99.5,0,100Z" fill="rgba(0,0,0,0)"/><path d="M99.5,86l.5,14-14-.5a19.008,19.008,0,0,0,11-8Z" fill="rgba(0,0,0,0)"/></svg>