<svg xmlns="http://www.w3.org/2000/svg" width="90" height="90" viewBox="0 0 90 90"><g fill="rgba(0,0,0,0)" stroke="rgba(0,0,0,0)" stroke-width="1"><rect width="90" height="90" stroke="none"/><rect x="0.5" y="0.5" width="89" height="89" fill="none"/></g><path d="M22.5,0,25,.5,22.5,1Z" fill="#f1c40f"/><path d="M8.5,4l-1,2Z" fill="rgba(0,0,0,0.84)"/><path d="M33.5,4l4,5Z" fill="rgba(0,0,0,0.84)"/><path d="M5.5,7l-1,2Z" fill="rgba(0,0,0,0.84)"/><path d="M41.5,10l-1,2L39,11.5Z" fill="#f1c40f"/><path d="M48.5,10l1,2Z" fill="rgba(0,0,0,0.84)"/><path d="M17.5,20l-3,4Z" fill="rgba(0,0,0,0.84)"/><path d="M23.5,22l-5,6Z" fill="rgba(0,0,0,0.84)"/><path d="M4.5,33l1,2Z" fill="rgba(0,0,0,0.84)"/><path d="M7.5,36l1,2Z" fill="rgba(0,0,0,0.84)"/><path d="M41.5,42l.5,9.5H41Z" fill="#f1c40f"/><path d="M48.5,42l.5,9.5H48Z" fill="#f1c40f"/><path d="M7.5,75l1,2Z" fill="rgba(0,0,0,0.84)"/><path d="M82.5,75l-1,2Z" fill="rgba(0,0,0,0.84)"/><path d="M19.5,0,22,.5,19.5,1Z" fill="#f1c40f"/><path d="M10.5,9l-1,2Z" fill="rgba(0,0,0,1)"/><path d="M31.5,9l1,2Z" fill="rgba(0,0,0,1)"/><path d="M.5,19,1,22.5H0Z" fill="#f1c40f"/><path d="M9.5,31l1,2Z" fill="rgba(0,0,0,1)"/><path d="M32.5,31l-1,2Z" fill="rgba(0,0,0,1)"/><path d="M19.5,41l3.5.5-3.5.5Z" fill="#f1c40f"/><path d="M6.5,5l-1,2Z" fill="rgba(0,0,0,0.36)"/><path d="M11.5,9l-2,3Z" fill="rgba(0,0,0,0.36)"/><path d="M19.5,9l-1,2Z" fill="rgba(0,0,0,0.36)"/><path d="M22.5,9l1,2Z" fill="rgba(0,0,0,0.36)"/><path d="M30.5,9l2,3Z" fill="rgba(0,0,0,0.36)"/><path d="M51.5,14l1,2Z" fill="rgba(0,0,0,0.36)"/><path d="M13.5,24l.5,2.5H13Z" fill="#f1c40f"/><path d="M15.5,28l2.5.5-2.5.5Z" fill="#f1c40f"/><path d="M9.5,30l2,3Z" fill="rgba(0,0,0,0.36)"/><path d="M32.5,30l-2,3Z" fill="rgba(0,0,0,0.36)"/><path d="M41.5,34l.5,7.5H41Z" fill="#f1c40f"/><path d="M48.5,34l.5,7.5H48Z" fill="#f1c40f"/><path d="M42.5,53l5.5.5-5.5.5Z" fill="#f1c40f"/><path d="M0,0,15,.5,5,6.5.5,15Z" fill="rgba(0,0,0,0)"/><path d="M27.5,0H90V90H0V27.5H1L5,36l7.5,5L22,42.5,7,67.5l-1,7L9.5,78h71q4.8-1.3,3.5-8.5l-31-54L47.5,9h-5L39,11,32.5,3l-5-2Z" fill="rgba(0,0,0,0)"/><path d="M19.5,6q10.8.3,14.5,7.5l2,9Q34.6,30.6,28.5,34l-9,2Q11.4,34.6,8,28.5l-2-9Q7.4,11.4,13.5,8ZM20,9l-2,2v9l-5,5v2q0,3,5,2l6-6V11Q23,8,20,9Z" fill="rgba(0,0,0,0)"/><path d="M42,34h5.5l.5.5V53H42.5l-.5-.5Z" fill="rgba(0,0,0,0)"/><path d="M42,60h5.5l.5,1.5,1,2L48,66H42.5L42,64.5l-1-2Z" fill="rgba(0,0,0,0)"/><path d="M15.5,1h11A22.719,22.719,0,0,1,38,9.5L39.5,12q2-3,8-2L82,67.5l1,7L77.5,78h-65L7,74.5v-5L23,41H15.5A22.719,22.719,0,0,1,4,32.5q-4.8-5.2-3-17A22.719,22.719,0,0,1,9.5,4ZM16,6,11,9,6,16Q4,27,9,32l7,4q11,2,16-3l4-6q2-12-3-16Q29,4,16,6ZM41,34V54h8V34Zm2,25q-3,1-2,7,1,2,7,1,2-1,1-6Q48,58,43,59Z" fill="#f1c40f"/><path d="M19,10h4v1.5l1,1v9L17.5,28h-2L14,24.5l4-4Q17,13,19,10Z" fill="#f1c40f"/></svg>