<svg xmlns="http://www.w3.org/2000/svg" width="100" height="100" viewBox="0 0 100 100"><g fill="rgba(0,0,0,0)" stroke="rgba(0,0,0,0)" stroke-width="1"><rect width="100" height="100" stroke="none"/><rect x="0.5" y="0.5" width="99" height="99" fill="none"/></g><path d="M59.5,8l1,2Z" fill="rgba(0,0,0,0.18)"/><path d="M35.5,10l-1,2Z" fill="rgba(0,0,0,0.18)"/><path d="M45.5,10l2.5.5-2.5.5Z" fill="#fff"/><path d="M51.5,10l2.5.5-2.5.5Z" fill="#fff"/><path d="M64.5,11l3,4Z" fill="rgba(0,0,0,0.18)"/><path d="M62.5,15l1,2Z" fill="rgba(0,0,0,0.18)"/><path d="M34.5,22l.5,7.5H34Z" fill="#fff"/><path d="M70.5,25l.5,3.5H70Z" fill="#fff"/><path d="M65.5,30l.5,2.5H65Z" fill="#fff"/><path d="M35.5,38,35,39.5,34.5,43,34,39.5Z" fill="#fff"/><path d="M70.5,39l.5,2.5H70Z" fill="#fff"/><path d="M65.5,43l-1,2L63,44.5Z" fill="#fff"/><path d="M35.5,44l2.5.5-2.5.5Z" fill="#fff"/><path d="M31.5,46l2,3Z" fill="rgba(0,0,0,0.18)"/><path d="M42.5,56,44,62.5l-2-1Z" fill="#fff"/><path d="M67.5,60l1,2Z" fill="rgba(0,0,0,0.18)"/><path d="M88.5,60l-1,2Z" fill="rgba(0,0,0,0.18)"/><path d="M83.5,61l1,2Z" fill="rgba(0,0,0,0.18)"/><path d="M37.5,65l-1,2Z" fill="rgba(0,0,0,0.18)"/><path d="M48.5,67l-2,3Z" fill="rgba(0,0,0,0.18)"/><path d="M60.5,67l1,2Z" fill="rgba(0,0,0,0.18)"/><path d="M36.5,68l2,3Z" fill="rgba(0,0,0,0.18)"/><path d="M33.5,70l2,3Z" fill="rgba(0,0,0,0.18)"/><path d="M93.5,71,96,72.5l-1.5.5Z" fill="#fff"/><path d="M40.5,73l2,1,1.5-.5L41.5,75Z" fill="#fff"/><path d="M74.5,73l-1,2Z" fill="rgba(0,0,0,0.18)"/><path d="M81.5,73l1,2Z" fill="rgba(0,0,0,0.18)"/><path d="M19.5,74l-1,2Z" fill="rgba(0,0,0,0.18)"/><path d="M47.5,74l-2,3Z" fill="rgba(0,0,0,0.18)"/><path d="M16.5,76l-3,4Z" fill="rgba(0,0,0,0.18)"/><path d="M38.5,76l1,2Z" fill="rgba(0,0,0,0.18)"/><path d="M73.5,81l1,2Z" fill="rgba(0,0,0,0.18)"/><path d="M82.5,81l-1,2Z" fill="rgba(0,0,0,0.18)"/><path d="M97.5,82l2.5.5-2.5.5Z" fill="#fff"/><path d="M44.5,89l.5,2.5H44Z" fill="#fff"/><path d="M63.5,94l2,3Z" fill="rgba(0,0,0,0.18)"/><path d="M0,0H100V73q-5,.8-7-2.5l4-5L90.5,59l-1,1-4,3q-3.7-1.5-2.5-7H73v6H69.5l-4-3L59,65.5l1,1L62,72l-6,1v8.5L57.5,83q6.3-2.2,4.5,3.5l-3,4L65.5,97l2-2,3-2L73,94v5.5l-.5.5H0ZM44,6l-8,4L30,20V33l1,1-1,4v7l8,13q2,7-2,9v2l4,5,3,1,6-7V65l-3-1-3-2V57l-5-8q2-7-3-5l1-5-1-5V20l2-4,7-5,5-1,7,2q2-1,1,2h4q4,3,5,10v6l-2,7q-1,3,2,2v4l-3,1a16.366,16.366,0,0,1-5,12l1,5,7-8,5-11-2-5,2-8-1-9-2-5L56,6ZM31,69,17,76,10,86q-1,6,1,6H45q-1-10,4-14l-1-4-3,4q-1,2-5,1l-4-6Q36,69,31,69Z" fill="rgba(0,0,0,0)"/><path d="M77.5,72,83,75.5l1,3L80.5,83l-3,1L73,80.5l-1-3L75.5,73Z" fill="rgba(0,0,0,0)"/><path d="M94,83h6v17H83V94l2.5-1,5,4L97,90.5l-1-1Q93.2,87.5,94,83Z" fill="rgba(0,0,0,0)"/><path d="M45.5,6l2.5.5L45.5,7Z" fill="#fff"/><path d="M37.5,9l-1,2Z" fill="rgba(0,0,0,0.77)"/><path d="M56.5,11,60,13.5l-1.5.5Z" fill="#fff"/><path d="M34.5,12l-1,2Z" fill="rgba(0,0,0,0.77)"/><path d="M39.5,12l-3,4Z" fill="rgba(0,0,0,0.77)"/><path d="M69.5,20l.5,2.5H69Z" fill="#fff"/><path d="M30.5,21l.5,9.5H30Z" fill="#fff"/><path d="M34.5,30l.5,2.5H34Z" fill="#fff"/><path d="M31.5,34l.5,2.5H31Z" fill="#fff"/><path d="M64.5,37l1,2Z" fill="rgba(0,0,0,0.77)"/><path d="M30.5,38l.5,4.5H30Z" fill="#fff"/><path d="M37.5,45l.5,3.5H37Z" fill="#fff"/><path d="M68.5,46l-2,3Z" fill="rgba(0,0,0,0.77)"/><path d="M60.5,53,59,55.5l.5,3.5L63,56.5l-5,4Q56.8,54.3,60.5,53Z" fill="#fff"/><path d="M40.5,54l1,2Z" fill="rgba(0,0,0,0.77)"/><path d="M82.5,57l.5,2.5H82Z" fill="#fff"/><path d="M38.5,58l.5,5.5H38Z" fill="#fff"/><path d="M64.5,60l-4,5Z" fill="rgba(0,0,0,0.77)"/><path d="M91.5,60l4,5Z" fill="rgba(0,0,0,0.77)"/><path d="M47.5,65l1,2Z" fill="rgba(0,0,0,0.77)"/><path d="M95.5,66l-1,2Z" fill="rgba(0,0,0,0.77)"/><path d="M45.5,70l-1,2Z" fill="rgba(0,0,0,0.77)"/><path d="M39.5,71l1,2Z" fill="rgba(0,0,0,0.77)"/><path d="M35.5,73l2,3Z" fill="rgba(0,0,0,0.77)"/><path d="M56.5,73l2.5.5-2.5.5Z" fill="#fff"/><path d="M45.5,77l-2,3Z" fill="rgba(0,0,0,0.77)"/><path d="M39.5,78l1,2Z" fill="rgba(0,0,0,0.77)"/><path d="M93.5,86l1,2Z" fill="rgba(0,0,0,0.77)"/><path d="M10.5,87l.5,2.5H10Z" fill="#fff"/><path d="M60.5,91l2,3Z" fill="rgba(0,0,0,0.77)"/><path d="M95.5,91l-4,5Z" fill="rgba(0,0,0,0.77)"/><path d="M73.5,95l.5,2.5H73Z" fill="#fff"/><path d="M48.5,6l3.5.5L48.5,7Z" fill="#fff"/><path d="M63.5,11l1,2Z" fill="rgba(0,0,0,1)"/><path d="M62.5,14l1,2Z" fill="rgba(0,0,0,1)"/><path d="M66.5,24l.5,5.5H66Z" fill="#fff"/><path d="M35.5,37l-1,2Z" fill="rgba(0,0,0,1)"/><path d="M32.5,46l1,2Z" fill="rgba(0,0,0,1)"/><path d="M47.5,67l-1,2Z" fill="rgba(0,0,0,1)"/><path d="M37.5,68l1,2Z" fill="rgba(0,0,0,1)"/><path d="M33.5,71l1,2Z" fill="rgba(0,0,0,1)"/><path d="M43.5,72l-1,2L41,73.5Z" fill="#fff"/><path d="M47.5,75v3Q44.5,76.5,47.5,75Z" fill="#fff"/><path d="M37.5,76l1,2Z" fill="rgba(0,0,0,1)"/><path d="M16.5,77l-2,3Z" fill="rgba(0,0,0,1)"/><path d="M43.5,7h12L66,13q4.2,5.5,4,16.5l-2,7,2,5-7,14L59.5,59,59,55.5,64.5,45q2.3.8,1.5-1.5l1-4-2-3,1-1,1-11-1-5L62.5,14q-5.1-.3-7-4h-12A11.676,11.676,0,0,0,35,16.5q-2.8,6.3-1,17l1,4q-2.3,1.3-1,6L37,45l1,6.5,4,5q-1.5,6,1.5,7.5L48,66.5,42.5,73,39,70.5l-2-3q3.4-2.6,2-10l-8-14v-5l1-5-1-1v-13A15.965,15.965,0,0,1,38.5,9Z" fill="#fff"/><path d="M74,56h8v4.5L83,63l2.5,1,5-4L95,64.5v2l-3,4L93,73l7,1v8H94.5L92,85.5l4,5L90.5,96l-2-2-4-2Q81,94.3,82,100H74V93.5L72.5,93l-2-1-5,4L60,90.5l1-1q2.6-1.4,2-6-1.6-3-7-1.5V74h3.5L63,73q.9-5.4-3-7.5L65.5,60l2,2,4,2Q75,61.7,74,56Zm1,16q-5,2-3,10,2,4,10,2,4-2,2-9Q82,70,75,72Z" fill="#fff"/><path d="M31.5,70q2.3-.7,1.5,1.5L40.5,80h3l4-4L47,77.5l-3,9V92H11.5q-1.2-.2-.5-6.5L18.5,76Z" fill="#fff"/></svg>