<svg xmlns="http://www.w3.org/2000/svg" width="90" height="90" viewBox="0 0 90 90"><g fill="rgba(0,0,0,0)" stroke="rgba(0,0,0,0)" stroke-width="1"><rect width="90" height="90" stroke="none"/><rect x="0.5" y="0.5" width="89" height="89" fill="none"/></g><path d="M29.5,3h38L77,12.5,67.5,4H29V25.5H28V4.5Z" fill="#fff"/><path d="M33.5,7H65V25H83V74.5L81.5,76H58l.5,3H86V22.5l-8-8,9,8v56L85.5,80h-27l-1-1-1.5.5L58.5,75H82V26H65.5L64,24.5V8H33.5Z" fill="#fff"/><path d="M69.5,11l9,10Z" fill="rgba(0,0,0,0.2)"/><path d="M28.5,28l3.5.5-3.5.5Z" fill="#fff"/><path d="M36.5,30,39,31.5l-1.5.5Z" fill="#fff"/><path d="M19.5,33l-1,2Z" fill="rgba(0,0,0,0.2)"/><path d="M25.5,33l2.5.5L24.5,35Z" fill="#fff"/><path d="M32.5,33,37,35.5l-1.5.5Z" fill="#fff"/><path d="M42.5,34l1,2Z" fill="rgba(0,0,0,0.2)"/><path d="M44.5,39l.5,4.5H44Z" fill="#fff"/><path d="M21.5,43l.5,3.5H21Z" fill="#fff"/><path d="M39.5,45l.5,2.5H39Z" fill="#fff"/><path d="M17.5,46l.5,2.5H17Z" fill="#fff"/><path d="M21.5,53,24,56.5H23Z" fill="#fff"/><path d="M39.5,53l-1,2Z" fill="rgba(0,0,0,0.2)"/><path d="M43.5,55l-1,2Z" fill="rgba(0,0,0,0.2)"/><path d="M18.5,56l1,2Z" fill="rgba(0,0,0,0.2)"/><path d="M24.5,58l1,2Z" fill="rgba(0,0,0,0.2)"/><path d="M20.5,60l2,3Z" fill="rgba(0,0,0,0.2)"/><path d="M38.5,67l2,3Z" fill="rgba(0,0,0,0.2)"/><path d="M27.5,71l1,2Z" fill="rgba(0,0,0,0.2)"/><path d="M33.5,71,33,72.5,32.5,74,32,72.5Z" fill="#fff"/><path d="M23.5,72l-1,2Z" fill="rgba(0,0,0,0.2)"/><path d="M50.5,73l1,2Z" fill="rgba(0,0,0,0.2)"/><path d="M7.5,75l-1,2Z" fill="rgba(0,0,0,0.2)"/><path d="M53.5,75l2,3Z" fill="rgba(0,0,0,0.2)"/><path d="M12.5,77l-1,2Z" fill="rgba(0,0,0,0.2)"/><path d="M5.5,78l-1,2Z" fill="rgba(0,0,0,0.2)"/><path d="M50.5,78l1,2Z" fill="rgba(0,0,0,0.2)"/><path d="M3.5,81,4,86l2,.5L4.5,87Q1.6,85.6,3.5,81Z" fill="#fff"/><path d="M8.5,81l1,1,17.5.5L8,83Z" fill="#fff"/><path d="M34.5,81l1,1,17.5.5L34,83Z" fill="#fff"/><path d="M57.5,85l-1,2Z" fill="rgba(0,0,0,0.2)"/><path d="M0,0H90V90H0ZM30,3,28,5V26l2,1h3V8H64V25l2,1H82V75H59l-2,4,2,1H86l1-1V23L68,3ZM29,28l-6,2-6,8V55l6,9v4L8,75,3,82q-1,4,2,5H57l1-1q1-6-2-8-5-6-14-8l-4-3V64l6-8V45l1-1-1-8Q39,29,29,28Z" fill="rgba(0,0,0,0)"/><path d="M69.5,12l8,9H69Z" fill="rgba(0,0,0,0)"/><path d="M28.5,33,39,36q1.8,2.4,1,8.5-2.2,1.3-1,6l1,2-6,9V67l-3.5,1L27,67V61.5l-6-10q2.8-1.7,1-8l-1-3L23,35Z" fill="rgba(0,0,0,0)"/><path d="M26.5,71q3,.5,2.5,4.5L27,82H9.5L9,80.5Z" fill="rgba(0,0,0,0)"/><path d="M34.5,71l15,7L53,81.5,35.5,82,32,74.5Z" fill="rgba(0,0,0,0)"/><path d="M32.5,7,33,24.5H32Z" fill="#fff"/><path d="M68,10h1.5L80,20.5,79.5,22H68Zm2,1L69,21H79Z" fill="#fff"/><path d="M35.5,30,40,32.5l-2.5.5Z" fill="#fff"/><path d="M21.5,31l-1,2Z" fill="rgba(0,0,0,0.64)"/><path d="M26.5,32l6.5.5-6.5.5Z" fill="#fff"/><path d="M24.5,33,22,36.5,21.5,38,21,36.5Z" fill="#fff"/><path d="M37.5,35,40,36.5,38.5,36Z" fill="#fff"/><path d="M40.5,38l.5,8.5H40Z" fill="#fff"/><path d="M20.5,40l.5,3.5H20Z" fill="#fff"/><path d="M17.5,43l.5,2.5H17Z" fill="#fff"/><path d="M21.5,47l.5,2.5H21Z" fill="#fff"/><path d="M40.5,50l.5,3.5-3,2Q40.8,54.3,40.5,50Z" fill="#fff"/><path d="M21.5,54l1,2Z" fill="rgba(0,0,0,0.64)"/><path d="M23.5,57,27,61.5l-4-3Z" fill="#fff"/><path d="M41.5,57,41,58.5,40.5,60,40,58.5Z" fill="#fff"/><path d="M20.5,58,22,60.5l-2-1Z" fill="#fff"/><path d="M35.5,60,35,61.5,34.5,63,34,61.5Z" fill="#fff"/><path d="M39.5,61l-1,2Z" fill="rgba(0,0,0,0.64)"/><path d="M23.5,63l.5,4.5-3,2Q24.1,68,23.5,63Z" fill="#fff"/><path d="M33.5,67l-1,2L29,68.5Z" fill="#fff"/><path d="M38.5,68l1,2Z" fill="rgba(0,0,0,0.64)"/><path d="M25.5,70l-1,2Z" fill="rgba(0,0,0,0.64)"/><path d="M35.5,70l1,2Z" fill="rgba(0,0,0,0.64)"/><path d="M31.5,73l.5,2.5H31Z" fill="#fff"/><path d="M49.5,73l1,2Z" fill="rgba(0,0,0,0.64)"/><path d="M8.5,75l-2,3Z" fill="rgba(0,0,0,0.64)"/><path d="M52.5,75l3,4Z" fill="rgba(0,0,0,0.64)"/><path d="M47.5,76,50,77.5,48.5,77Z" fill="#fff"/><path d="M11.5,77l-1,2Z" fill="rgba(0,0,0,0.64)"/><path d="M5.5,79,5,80.5,4.5,82,4,80.5Z" fill="#fff"/><path d="M6.5,86l49.5.5L6.5,87Z" fill="#fff"/><path d="M67.5,4l4,5Z" fill="rgba(0,0,0,0.95)"/><path d="M73.5,10l7,8Z" fill="rgba(0,0,0,0.95)"/><path d="M82.5,19l2,3Z" fill="rgba(0,0,0,0.95)"/><path d="M85.5,23,86,78.5H85Z" fill="#fff"/><path d="M65.5,24l17.5.5L65.5,25Z" fill="#fff"/><path d="M29.5,25l2.5.5Q29.9,28.8,29.5,25Z" fill="#fff"/><path d="M28.5,29l3.5.5-3.5.5Z" fill="#fff"/><path d="M22.5,31l-3,4Z" fill="rgba(0,0,0,0.95)"/><path d="M33.5,32l2,3Z" fill="rgba(0,0,0,0.95)"/><path d="M23.5,33l-2,3Z" fill="rgba(0,0,0,0.95)"/><path d="M39.5,33,43,35.5,40.5,34Z" fill="#fff"/><path d="M20.5,37l.5,2.5H20Z" fill="#fff"/><path d="M41.5,39l.5,3.5H41Z" fill="#fff"/><path d="M17.5,40l.5,2.5H17Z" fill="#fff"/><path d="M20.5,44l.5,3.5H20Z" fill="#fff"/><path d="M17.5,50l.5,2.5H17Z" fill="#fff"/><path d="M43.5,50l.5,3.5H43Z" fill="#fff"/><path d="M18.5,55l2,3Z" fill="rgba(0,0,0,0.95)"/><path d="M42.5,55l-2,3Z" fill="rgba(0,0,0,0.95)"/><path d="M23.5,59l3,4Z" fill="rgba(0,0,0,0.95)"/><path d="M37.5,59l-2,3Z" fill="rgba(0,0,0,0.95)"/><path d="M39.5,60,38,62.5q-1.5,6,1.5,7.5l1.5.5-1.5.5q-4-1.5-2.5-8.5Z" fill="#fff"/><path d="M22.5,61l1,2Z" fill="rgba(0,0,0,0.95)"/><path d="M34.5,63l.5,4.5-2,1Z" fill="#fff"/><path d="M23.5,68l-2,3L20,70.5Z" fill="#fff"/><path d="M32.5,71l-1,2Z" fill="rgba(0,0,0,0.95)"/><path d="M30.5,74,32,76.5H29Z" fill="#fff"/><path d="M9.5,75l-3,4Z" fill="rgba(0,0,0,0.95)"/><path d="M49.5,76,54,81.5H53Z" fill="#fff"/><path d="M59.5,76v3Q56.5,77.5,59.5,76Z" fill="#fff"/><path d="M10.5,77l-1,2Z" fill="rgba(0,0,0,0.95)"/><path d="M56.5,81l.5,4.5H56Z" fill="#fff"/><path d="M4.5,82,6,85.5l-2-1Z" fill="#fff"/><path d="M29,4H66.5L73,9l7.5,9q2.3-.7,1.5,1.5l3,3V79H60.5L59,77.5,60.5,76H83V24H65V7H32V24.5L30.5,26,29,24.5Zm39,6V22H80V21L70,10Z" fill="#fff"/><path d="M25.5,30h8L43,36.5l1,7-1,1v10l-6,8v6L39.5,71l10,3L55,78.5,56,86H6.5L5,84.5q.4-8.1,6.5-10.5l10-3L24,68.5v-6l-6-8v-17L23.5,31Zm.5,2-2,1q-6,3-4,15v2q1,9,7,14v5h7q2-1,1-6l6-9-1-5,2-6-1-5-7-6Zm0,38-4,3L11,77,7,83H28q-1-5,3-7l2,7H54V81l-4-5L40,73l-4-3-3,1-2,3-1-1Z" fill="#fff"/></svg>