<svg xmlns="http://www.w3.org/2000/svg" width="100" height="100" viewBox="0 0 100 100"><g fill="rgba(0,0,0,0)" stroke="rgba(0,0,0,0)" stroke-width="1"><rect width="100" height="100" stroke="none"/><rect x="0.5" y="0.5" width="99" height="99" fill="none"/></g><path d="M0,0H100V60H68V83.5l-3.5.5q-6,1.5-4.5,10.5L63.5,99l1.5.5L0,100ZM14,4V96H57l-1-2V92H18V8H58V32H82V56h4V29L62,4ZM71,46q-4,1-3,6L57,65q1,2-1,1L44,54V51q-1-4-5-3t-3,5l-7,7H27q-4,1-3,6,1,3,6,2,3-1,2-4l9-8L52,69v3q1,3,6,2,3-1,2-5L71,56q-1-3,3-2,3-1,2-5T71,46Z" fill="rgba(0,0,0,0)"/><path d="M62.5,12l15,16H62Z" fill="rgba(0,0,0,0)"/><path d="M72,64H96V90.5L92.5,95l-3,1L87,95l-1-3.5L87,89l5-1-.5-4H72Z" fill="rgba(0,0,0,0)"/><path d="M67.5,88l15.5.5q-2.2,1.3-1,6l.5,1.5h-15L65,95l-1-3.5L65,89Z" fill="rgba(0,0,0,0)"/><path d="M99.5,94l.5,6-6-.5,5-4Z" fill="rgba(0,0,0,0)"/><path d="M70.5,46l-2,3Z" fill="rgba(0,0,0,0.89)"/><path d="M73.5,46q3.3.8,2.5,5.5L72.5,54V53L75,51.5Q75.5,46.8,73.5,46Z" fill="#fff"/><path d="M38.5,48l-2,3Z" fill="rgba(0,0,0,0.89)"/><path d="M41.5,48,47,56.5l-4-3Q43.5,48.8,41.5,48Z" fill="#fff"/><path d="M65.5,55l-1,2Z" fill="rgba(0,0,0,0.89)"/><path d="M41.5,56l4,5Z" fill="rgba(0,0,0,0.89)"/><path d="M67.5,58l-1,2Z" fill="rgba(0,0,0,0.89)"/><path d="M26.5,60l-2,3Z" fill="rgba(0,0,0,0.89)"/><path d="M61.5,60l-1,2Z" fill="rgba(0,0,0,0.89)"/><path d="M69.5,60l-1,2Z" fill="rgba(0,0,0,0.89)"/><path d="M98.5,60l1,2Z" fill="rgba(0,0,0,0.89)"/><path d="M50.5,61l4,5Z" fill="rgba(0,0,0,0.89)"/><path d="M31.5,63l.5,2.5q-.7,3.3-5.5,2.5l-2-3q.7,2.8,5,2Z" fill="#fff"/><path d="M63.5,63l-1,2Z" fill="rgba(0,0,0,0.89)"/><path d="M49.5,65,53,69.5H52Z" fill="#fff"/><path d="M59.5,68l.5,3.5q-.7,3.3-5.5,2.5l-2-3q.8,2.8,5,2Z" fill="#fff"/><path d="M90.5,84,92,86.5l-2,1,1-2Z" fill="#fff"/><path d="M65.5,88l-1,2Z" fill="rgba(0,0,0,0.89)"/><path d="M87.5,88l-1,2Z" fill="rgba(0,0,0,0.89)"/><path d="M64.5,94l1,2Z" fill="rgba(0,0,0,0.89)"/><path d="M86.5,94l1,2Z" fill="rgba(0,0,0,0.89)"/><path d="M61.5,4l24,25Z" fill="rgba(0,0,0,0.35)"/><path d="M62.5,11l16,17Z" fill="rgba(0,0,0,0.35)"/><path d="M67.5,52l-2,3Z" fill="rgba(0,0,0,0.35)"/><path d="M35.5,53l-6,7Z" fill="rgba(0,0,0,0.35)"/><path d="M70.5,55l-2,3Z" fill="rgba(0,0,0,0.35)"/><path d="M38.5,56l-6,7Z" fill="rgba(0,0,0,0.35)"/><path d="M47.5,57l4,5Z" fill="rgba(0,0,0,0.35)"/><path d="M63.5,57l-2,3Z" fill="rgba(0,0,0,0.35)"/><path d="M44.5,60l4,5Z" fill="rgba(0,0,0,0.35)"/><path d="M66.5,60l-2,3Z" fill="rgba(0,0,0,0.35)"/><path d="M59.5,62l-2,3Z" fill="rgba(0,0,0,0.35)"/><path d="M62.5,65l-2,3Z" fill="rgba(0,0,0,0.35)"/><path d="M64.5,84l1.5.5L63.5,86Z" fill="#fff"/><path d="M61.5,87,61,88.5,60.5,90,60,88.5Z" fill="#fff"/><path d="M95.5,91l.5,1.5L91.5,96V95L95,92.5Z" fill="#fff"/><path d="M98.5,95l-3,4Z" fill="rgba(0,0,0,0.35)"/><path d="M14,4H60.5L86,29.5v26L82,56V32H58V8H18V92H55.5l.5,4H14Zm49,7L62,28H79Z" fill="#fff"/><path d="M71.5,46,75,48.5q.8,3.8-1.5,4.5L70,54,59,68.5q.8,3.8-1.5,4.5-4.7.8-5.5-2.5l1-2L41.5,56l-2-1a20.456,20.456,0,0,0-10,12q-4.7.8-5.5-2.5L27.5,60l1,1L37,52.5l-1-1L39.5,48,43,50.5v3L54.5,66q4.4,1.5,3.5-1.5l11-14-1-1Z" fill="#fff"/><path d="M70.5,60h27l2.5,2.5v28L95.5,98l-5,2h-23L61,95.5l-1-4L64.5,85,68,83.5v-21ZM72,64V84H90l1,3-5,3q-1,5,2,6,5,1,7-1l1-2V64ZM66,88l-2,2q-1,5,2,6H84l-2-3,2-4Z" fill="#fff"/></svg>