<svg xmlns="http://www.w3.org/2000/svg" width="100" height="100" viewBox="0 0 100 100"><g fill="rgba(0,0,0,0)" stroke="rgba(0,0,0,0)" stroke-width="1"><rect width="100" height="100" stroke="none"/><rect x="0.5" y="0.5" width="99" height="99" fill="none"/></g><path d="M2,12H22V32H2Zm4,4V28H18V16Z" fill="#fff"/><path d="M10,20q6-2,4,4Q8,26,10,20Z" fill="#fff"/><path d="M26,20H97.5l.5,4H26.5Z" fill="#fff"/><path d="M2,40H22V60H2Zm4,4V56H18V44Z" fill="#fff"/><path d="M26,48H97.5l.5,4H26.5Z" fill="#fff"/><path d="M2,68H22V88H2Zm4,4V84H18V72Z" fill="#fff"/><path d="M10,76q6-2,4,4Q8,82,10,76Z" fill="#fff"/><path d="M26,76H97.5l.5,4H26.5Z" fill="#fff"/><path d="M0,0H100V100H0ZM2,12V32H22V12Zm24,8,1,4H98V20ZM2,40V60H22V40Zm24,8,1,4H98V48ZM2,68V88H22V68Zm24,8,1,4H98V76Z" fill="rgba(0,0,0,0)"/><path d="M6,16H18V28H6Zm4,4q-2,6,4,4Q16,18,10,20Z" fill="rgba(0,0,0,0)"/><path d="M6,44H18V56H6Z" fill="rgba(0,0,0,0)"/><path d="M6,72H18V84H6Zm4,4q-2,6,4,4Q16,74,10,76Z" fill="rgba(0,0,0,0)"/></svg>