<svg xmlns="http://www.w3.org/2000/svg" width="100" height="100" viewBox="0 0 100 100"><g fill="rgba(0,0,0,0)" stroke="rgba(0,0,0,0)" stroke-width="1"><rect width="100" height="100" stroke="none"/><rect x="0.5" y="0.5" width="99" height="99" fill="none"/></g><path d="M75.5,4l2.5.5-4,2L72.5,9,73,7.5Z" fill="rgba(0,0,0,0.01)"/><path d="M65.5,5l1,2Z" fill="rgba(0,0,0,0.01)"/><path d="M83.5,7q2.6-.8,1.5,2.5H84Z" fill="rgba(0,0,0,0.01)"/><path d="M62.5,9,65,12.5l-2-1Z" fill="rgba(0,0,0,0.01)"/><path d="M68.5,10l3.5.5-3.5.5Z" fill="rgba(0,0,0,0.01)"/><path d="M76.5,10l.5,1.5-2,1Z" fill="rgba(0,0,0,0.01)"/><path d="M61.5,13l.5,3.5H61Z" fill="rgba(0,0,0,0.01)"/><path d="M65.5,14l1,2Z" fill="rgba(0,0,0,0.01)"/><path d="M47.5,15l2.5.5-2.5.5Z" fill="rgba(0,0,0,0.01)"/><path d="M56.5,15l-1,2L52,16.5Z" fill="rgba(0,0,0,0.01)"/><path d="M46.5,17l.5,1.5L45.5,21,45,19.5Z" fill="rgba(0,0,0,0.01)"/><path d="M78.5,17l5,6Z" fill="rgba(0,0,0,0.01)"/><path d="M59.5,19l-2,3Z" fill="rgba(0,0,0,0.01)"/><path d="M65.5,20l1.5.5L64.5,22Z" fill="rgba(0,0,0,0.01)"/><path d="M73.5,20,76,21.5,74.5,21Z" fill="rgba(0,0,0,0.01)"/><path d="M49.5,22l1,2Z" fill="rgba(0,0,0,0.01)"/><path d="M90.5,22l-1,2Z" fill="rgba(0,0,0,0.01)"/><path d="M44.5,24,51,29.5,48.5,33,50,30.5,47.5,27Z" fill="rgba(0,0,0,0.01)"/><path d="M52.5,24l1,2Z" fill="rgba(0,0,0,0.01)"/><path d="M61.5,24,61,25.5,60.5,27,60,25.5Z" fill="rgba(0,0,0,0.01)"/><path d="M68.5,24l3.5.5-3.5.5Z" fill="rgba(0,0,0,0.01)"/><path d="M78.5,24,80,26.5H79Z" fill="rgba(0,0,0,0.01)"/><path d="M87.5,24l-1,2Z" fill="rgba(0,0,0,0.01)"/><path d="M66.5,25l-1,2Z" fill="rgba(0,0,0,0.01)"/><path d="M73.5,25l1,2Z" fill="rgba(0,0,0,0.01)"/><path d="M94.5,25l1.5.5L93.5,27Z" fill="rgba(0,0,0,0.01)"/><path d="M91.5,27,90,29.5,89.5,32,89,29.5Z" fill="rgba(0,0,0,0.01)"/><path d="M64.5,28l.5,3.5H64Z" fill="rgba(0,0,0,0.01)"/><path d="M75.5,28l.5,3.5H75Z" fill="rgba(0,0,0,0.01)"/><path d="M91.5,32l1,2Z" fill="rgba(0,0,0,0.01)"/><path d="M46.5,33l-1,2-2,1,1-2Z" fill="rgba(0,0,0,0.01)"/><path d="M60.5,33,62,35.5l-2-1Z" fill="rgba(0,0,0,0.01)"/><path d="M65.5,33l1,2Z" fill="rgba(0,0,0,0.01)"/><path d="M74.5,33l-1,2Z" fill="rgba(0,0,0,0.01)"/><path d="M79.5,33l.5,1.5-2,1Z" fill="rgba(0,0,0,0.01)"/><path d="M53.5,34l1.5.5L52.5,36Z" fill="rgba(0,0,0,0.01)"/><path d="M94.5,34l1,2Z" fill="rgba(0,0,0,0.01)"/><path d="M68.5,35l3.5.5-3.5.5Z" fill="rgba(0,0,0,0.01)"/><path d="M87.5,35l1,2Z" fill="rgba(0,0,0,0.01)"/><path d="M50.5,36,50,37.5l1,2-2-1Z" fill="rgba(0,0,0,0.01)"/><path d="M53.5,38h3L62,43.5,61.5,46q-.5-5.5-5-7Q52.5,39.8,53.5,38Z" fill="rgba(0,0,0,0.01)"/><path d="M64.5,38,67,39.5l-1.5.5Z" fill="rgba(0,0,0,0.01)"/><path d="M75.5,38l-1,2L73,39.5Z" fill="rgba(0,0,0,0.01)"/><path d="M82.5,38l-4,5Z" fill="rgba(0,0,0,0.01)"/><path d="M94.5,39l.5,1.5L93.5,43,93,41.5Z" fill="rgba(0,0,0,0.01)"/><path d="M26.5,40l.5,3.5H26Z" fill="rgba(0,0,0,0.01)"/><path d="M37.5,40l.5,3.5H37Z" fill="rgba(0,0,0,0.01)"/><path d="M46.5,42l.5,2,7.5,6,1.5-.5q.8,2.3-1.5,1.5l-7-6-1.5.5v-2Z" fill="rgba(0,0,0,0.01)"/><path d="M51.5,43l2.5.5-2.5.5Z" fill="rgba(0,0,0,0.01)"/><path d="M55.5,43,57,46.5H56Z" fill="rgba(0,0,0,0.01)"/><path d="M15.5,44,18,45.5,16.5,45l-8,7Z" fill="rgba(0,0,0,0.01)"/><path d="M30.5,44l.5,3.5H30Z" fill="rgba(0,0,0,0.01)"/><path d="M33.5,44l.5,2.5H33Z" fill="rgba(0,0,0,0.01)"/><path d="M90.5,44l2.5.5-2.5.5Z" fill="rgba(0,0,0,0.01)"/><path d="M65,45h8.5L75,46.5,73.5,46q-7.7-1.8-9.5,2.5L62.5,51,60,49.5l.5-1.5.5,2q2.7,1.1,2-1.5Z" fill="rgba(0,0,0,0.01)"/><path d="M19.5,46l2,3Z" fill="rgba(0,0,0,0.01)"/><path d="M44.5,46l-2,3Z" fill="rgba(0,0,0,0.01)"/><path d="M25.5,47l-1,2L23,48.5Z" fill="rgba(0,0,0,0.01)"/><path d="M38.5,47l1,2Z" fill="rgba(0,0,0,0.01)"/><path d="M83.5,47l.5,2.5H83Z" fill="rgba(0,0,0,0.01)"/><path d="M75.5,48,79,50.5l-1.5.5Z" fill="rgba(0,0,0,0.01)"/><path d="M16.5,50,21,53.5,18.5,52Z" fill="rgba(0,0,0,0.01)"/><path d="M47.5,50q4.5,2,1,4l-1-3-4,3,2-3Z" fill="rgba(0,0,0,0.01)"/><path d="M67.5,51l-1,2Z" fill="rgba(0,0,0,0.01)"/><path d="M14.5,52l1,2Z" fill="rgba(0,0,0,0.01)"/><path d="M25.5,52l1.5.5L24.5,54Z" fill="rgba(0,0,0,0.01)"/><path d="M55.5,52,58,53.5l-1.5.5-1-1L53,54.5Z" fill="rgba(0,0,0,0.01)"/><path d="M72.5,52l1,2Z" fill="rgba(0,0,0,0.01)"/><path d="M84.5,52l-1,2-3,1V54Z" fill="rgba(0,0,0,0.01)"/><path d="M9.5,53l1,2Z" fill="rgba(0,0,0,0.01)"/><path d="M65.5,54l-2,3L61,55.5l1.5-.5Q64,57.5,65.5,54Z" fill="rgba(0,0,0,0.01)"/><path d="M16.5,55,19,58.5,16.5,63,16,61.5l2-4Z" fill="rgba(0,0,0,0.01)"/><path d="M47.5,55,46,57.5,45.5,59,45,57.5Z" fill="rgba(0,0,0,0.01)"/><path d="M74.5,55l1,2Z" fill="rgba(0,0,0,0.01)"/><path d="M11.5,56l1,2Z" fill="rgba(0,0,0,0.01)"/><path d="M52.5,56l-2,3Z" fill="rgba(0,0,0,0.01)"/><path d="M27.5,58l1.5.5L26.5,60Z" fill="rgba(0,0,0,0.01)"/><path d="M35.5,58,38,59.5,36.5,59Z" fill="rgba(0,0,0,0.01)"/><path d="M12.5,59l.5,1.5L10.5,62V61Q13,61.7,12.5,59Z" fill="rgba(0,0,0,0.01)"/><path d="M51.5,60l1,2Z" fill="rgba(0,0,0,0.01)"/><path d="M4.5,62l2.5.5L4.5,63Z" fill="rgba(0,0,0,0.01)"/><path d="M23.5,62,23,63.5,22.5,65,22,63.5Z" fill="rgba(0,0,0,0.01)"/><path d="M30.5,62l3.5.5-3.5.5Z" fill="rgba(0,0,0,0.01)"/><path d="M40.5,62,42,64.5H41Z" fill="rgba(0,0,0,0.01)"/><path d="M56.5,62l3.5.5-3.5.5Z" fill="rgba(0,0,0,0.01)"/><path d="M28.5,63l-1,2Z" fill="rgba(0,0,0,0.01)"/><path d="M35.5,63l1,2Z" fill="rgba(0,0,0,0.01)"/><path d="M15.5,64l.5,2-3-.5Z" fill="rgba(0,0,0,0.01)"/><path d="M8.5,66l2.5.5L8.5,67Z" fill="rgba(0,0,0,0.01)"/><path d="M26.5,66l.5,3.5H26Z" fill="rgba(0,0,0,0.01)"/><path d="M37.5,66l.5,3.5H37Z" fill="rgba(0,0,0,0.01)"/><path d="M52.5,66l3.5.5-3.5.5Z" fill="rgba(0,0,0,0.01)"/><path d="M8.5,69l2.5.5L8.5,70Z" fill="rgba(0,0,0,0.01)"/><path d="M53.5,69l2.5.5-2.5.5Z" fill="rgba(0,0,0,0.01)"/><path d="M13.5,70q3.3-1.1,2.5,1.5L14.5,71Z" fill="rgba(0,0,0,0.01)"/><path d="M22.5,71,24,73.5l-2-1Z" fill="rgba(0,0,0,0.01)"/><path d="M27.5,71l1,2Z" fill="rgba(0,0,0,0.01)"/><path d="M36.5,71l-1,2Z" fill="rgba(0,0,0,0.01)"/><path d="M41.5,71l.5,1.5-2,1Z" fill="rgba(0,0,0,0.01)"/><path d="M4.5,73l2.5.5L4.5,74Z" fill="rgba(0,0,0,0.01)"/><path d="M16.5,73,19,78.5l-3,2,2-3Z" fill="rgba(0,0,0,0.01)"/><path d="M30.5,73l3.5.5-3.5.5Z" fill="rgba(0,0,0,0.01)"/><path d="M57.5,73l2.5.5-2.5.5Z" fill="rgba(0,0,0,0.01)"/><path d="M10.5,74,13,75.5,12.5,77,12,75Z" fill="rgba(0,0,0,0.01)"/><path d="M52.5,74l1.5.5L51.5,76Z" fill="rgba(0,0,0,0.01)"/><path d="M26.5,76,29,77.5l-1.5.5Z" fill="rgba(0,0,0,0.01)"/><path d="M37.5,76l-1,2L35,77.5Z" fill="rgba(0,0,0,0.01)"/><path d="M45.5,77,47,79.5l-2-1Z" fill="rgba(0,0,0,0.01)"/><path d="M50.5,77l1,2Z" fill="rgba(0,0,0,0.01)"/><path d="M12.5,78l-1,2Z" fill="rgba(0,0,0,0.01)"/><path d="M52.5,80l2,3Z" fill="rgba(0,0,0,0.01)"/><path d="M10.5,81,9,83.5l7,8-8-7Z" fill="rgba(0,0,0,0.01)"/><path d="M21.5,81,27,83.5l-1.5.5-4-2L19,83.5Z" fill="rgba(0,0,0,0.01)"/><path d="M47.5,81l2,3Z" fill="rgba(0,0,0,0.01)"/><path d="M15.5,82l-1,2Z" fill="rgba(0,0,0,0.01)"/><path d="M39.5,82l-1,2L37,83.5Z" fill="rgba(0,0,0,0.01)"/><path d="M43.5,82,48,85.5,46.5,85Z" fill="rgba(0,0,0,0.01)"/><path d="M17.5,84l-1,2Z" fill="rgba(0,0,0,0.01)"/><path d="M28.5,84q2.6-.8,1.5,2.5H29Z" fill="rgba(0,0,0,0.01)"/><path d="M34,84l2,.5-2,1Z" fill="rgba(0,0,0,0.01)"/><path d="M55.5,84l-7,8L42,87.5,44.5,89l4,2Z" fill="rgba(0,0,0,0.01)"/><path d="M21.5,87l-1,2Z" fill="rgba(0,0,0,0.01)"/><path d="M23.5,87,26,88.5,25.5,91,25,88Z" fill="rgba(0,0,0,0.01)"/><path d="M39.5,87l1.5.5L38.5,89Z" fill="rgba(0,0,0,0.01)"/><path d="M33.5,88l.5,2.5H33Z" fill="rgba(0,0,0,0.01)"/><path d="M18.5,89l-1,2Z" fill="rgba(0,0,0,0.01)"/><path d="M0,0H100V100H0ZM63,4,55,7l1,7q2,1,0,2l-9-1L44,25l4,2,2,4-7,5,4,9-6,4q-5-2-3-9H26v7l-3,2-6-5L8,52l5,7-1,2-2,1H4V74l8,1,1,3L8,84l8,8,7-5,2,1,1,4v4H37l1-6,4-3,6,5,8-7-5-8,4-3h5V62q-7,2-9-2l5-7,8,4,4-5q-1-3,3-2l5,7,9-4-2-6,2-4,8,2,3-9-4-4q-3,1-2-2l6-4q1-7-3-11l-6,2-4-1,2-9L76,4,72,9v1H68L67,7A3.921,3.921,0,0,0,63,4Z" fill="rgba(0,0,0,0)"/><path d="M61,10q2.7-1.1,2,1.5L66.5,16l1-1H75l2.5-5L79,12.5l-1,5L83.5,23l1-1L90,21l-1.5,3L85,26.5v8l1.5.5L90,37q1.3,3-2.5,2l-5-1L78,42.5v5L79,50l-4-2.5L73.5,45h-8L65,46.5,63,50q-3.3,1.3-2-3.5l1-3L56.5,38h-3L50,39l1.5-3L55,35V26.5L52.5,24,50,22.5q-.9-3,3.5-1.5l4,1L62,16.5v-3Zm5,10-4,2-2,4v9l2,3,4,2h9l3-2,2-3V26l-2-4-3-2Z" fill="rgba(0,0,0,0)"/><path d="M67.5,25q6.3-1.2,7.5,2.5,1.3,6.3-2.5,7.5-6.2,1.3-7.5-2.5Q63.8,26.3,67.5,25Z" fill="rgba(0,0,0,0)"/><path d="M54.5,43Q57,44,56,48.5L54.5,50,49,44.5Z" fill="rgba(0,0,0,0)"/><path d="M31,44q3-1.2,2,2.5L34,52l7.5,3,6-4q2.8,1.3.5,2.5l-3,5L48,66l8,1q1.3,3-2.5,2L48,70l-3,8.5L49,85l-7.5-4L34,84l-1,8q-2.7,1.1-2-1.5L30,84l-8.5-3L15,85l4-7.5L16,70,8,69q-1.2-3,2.5-2L16,66l3-8.5L15,51l7.5,4L30,52ZM28,58l-4,2-2,4v9l2,3,4,2h9l3-2,2-3V64l-2-4-3-2Z" fill="rgba(0,0,0,0)"/><path d="M29.5,63q6.3-1.2,7.5,2.5,1.3,6.3-2.5,7.5-6.2,1.3-7.5-2.5Q25.8,64.3,29.5,63Z" fill="rgba(0,0,0,0)"/><path d="M63.5,4q2.3-.7,1.5,1.5L68,11h4V9.5L75.5,5q6.6-.6,8.5,3.5l-1,7Q84,18,88.5,17L93,16l3,8.5-7,5q-1.1,3.3,1.5,2.5L96,36.5,93,44l-8.5-1q-2.7,1.3-1.5,6.5L84,53l-8.5,3L72,50q-4.7-1-6,2.5L63.5,56l-8-4L50,58.5,52.5,62,60,63v9.5l-2.5.5L51,75.5l-1,2,5,7L47.5,91l-5-4h-3L38,88.5,37,96H27.5L27,94.5q-2.2-1.2-1-6L24.5,87h-3l-6,4L9,83.5l4-5v-3L11.5,74,4,73V63.5L6.5,63,13,60.5v-3l-4-6L16.5,45l5,4h3L26,47.5,27,40H37v3.5L39.5,49h3l6-4L56,51l1-6.5Q56,42,51.5,43L47,44l-3-9,7-4.5L47.5,26,44,23.5,47,16l8.5,1q2.3-.7,1.5-4.5L56,7ZM63,9l-2,1v2q2,9-4,10l-7-2-1,3,6,3-1,4,1,4-4,2-2,3q1,2,3,0h5l4,5-1,6,3,1,1-2q2-5,10-3l1,3,4,2-1-5V44l6-6,6,2,1-2-4-3-2-1V26l5-2q3-1,0-3l-4,1H84l-6-5,1-2q2-7-3-5l-1,4q-2,3-8,1ZM30,44v7l-6,3-6-3q-2-3-4,2l4,5-2,6-3,2q-7-2-5,4l7,1,3,7-2,4q-4,2,1,4l5-4,6,2,2,4q-2,5,3,4,2-1,1-5l7-5,6,3q1,3,3-1l-4-5,2-8,8-1V66H50l-4-6,2-5q4-3,0-5l-5,4-7-3H34V44Z" fill="#fff"/><path d="M67.5,20q8-1,10.5,3.5,2.8,2.7,2,9L76.5,38q-2.7,2.8-9,2L62,36.5q-2.8-2.7-2-9L63.5,22ZM69,24l-2,1-3,4,1,5,4,2,5-1,2-3-1-5Q74,23,69,24Z" fill="#fff"/><path d="M29.5,58q8-1,10.5,3.5,2.8,2.7,2,9L38.5,76q-2.7,2.8-9,2L24,74.5q-2.8-2.7-2-9L25.5,60ZM31,62l-2,1-3,4,1,5,4,2,5-1,2-3-1-5Q36,61,31,62Z" fill="#fff"/></svg>