<svg xmlns="http://www.w3.org/2000/svg" width="643.627" height="664.956" viewBox="0 0 643.627 664.956"><defs><style>.a{fill:#d4a181;}.a,.b,.c,.d,.e,.f,.g,.h,.j,.k,.l,.m,.n,.o,.p{fill-rule:evenodd;}.b{fill:#191847;}.c{fill:#ba8b72;}.d{fill:#69a1ac;}.e{fill:#89c5cc;}.f{fill:#d1a6a6;}.g{fill:#d72323;}.h{fill:#b28b67;}.i{opacity:0.962;}.j{fill:#c5cfd6;}.k{fill:#34495e;}.l{fill:#e4e4e4;}.m{fill:#dde3e9;}.n{fill:#2f3676;}.o{fill:rgba(0,0,0,0.1);}.p{fill:rgba(255,255,255,0.2);}</style></defs><g transform="translate(-167.373 -220.044)"><g transform="translate(55.77 187.836)"><g transform="translate(111.603 32.208)"><g transform="matrix(0.966, 0.259, -0.259, 0.966, 75.183, 0)"><g transform="translate(70.796 16.569)"><path class="a" d="M12.445,51.952C5.5,43.805.807,33.821,1.592,22.633,3.854-9.6,48.727-2.511,57.455,13.758s7.692,57.539-3.59,60.447c-4.5,1.16-14.083-1.681-23.837-7.56l6.123,43.315H0Z" transform="translate(0 0)"/></g><path class="b" d="M95.754,66.255C91.271,74.86,85.071,81.34,78.876,81.34c-11.765,0-20.131-15.73-20.131-32.642q0-.891.035-1.77C46.335,55.468,36.743,72.3,20.276,72.3c-22.4,0-31.3-45.189,0-45.189,21.287,0,31.759,3.1,40.783,7.693a29.314,29.314,0,0,1,7.812-12.182,12.144,12.144,0,0,1,3.6-2.556,16.684,16.684,0,0,1,2.991-1.282c5.442-2,13.325-3.411,22.13-3.718,1.644-.057,3.259-.074,4.834-.053A15.063,15.063,0,1,1,118.307,30.1a76.026,76.026,0,0,1-16.849,2.864,31.413,31.413,0,0,1,.97,8.08,45.688,45.688,0,0,1-.84,8.4A7.038,7.038,0,0,0,96.4,46.7a9.034,9.034,0,0,0-9.038,9.038C87.365,61.64,90.775,65.913,95.754,66.255Z" transform="translate(0)"/></g><g transform="translate(0 273.7)"><path class="c" d="M133.491,0l55.177,190.135L214.62,332.892h26.048L214.667,0Z" transform="translate(-67.213 0)"/><path class="a" d="M127.9,0c3.85,98.774,2.332,152.649,1.47,161.623S123.612,230.7,90.277,335.9H117.37c44.146-100.927,59.558-161.029,64.621-174.282S202.008,94.5,223.84,0Z" transform="translate(-86.415)"/><path class="d" d="M132.671,0q21.529,98.139,74.47,313.31h38.1C248.054,166.075,236.083,69.17,215.353,0Z" transform="translate(-67.578 0)"/><path class="e" d="M127.347,0c3.771,98.774-6,196.086-36.271,314.848h40.649C175.954,215.428,207.653,118.6,229.317,0Z" transform="translate(-86.06)"/><g transform="translate(0 328.373)"><path class="b" d="M0,46.928l1.495-24.1q13.129,3.84,32.887-3.013Q55.628,34.864,87.873,40.367h0a3.013,3.013,0,0,1,2.392,3.792L88.2,51.447H2.99Z" transform="translate(0 -19.815)"/></g><g transform="translate(141.592 328.373)"><path class="b" d="M0,46.928l1.495-24.1q13.129,3.84,32.887-3.013Q55.628,34.864,87.873,40.367h0a3.013,3.013,0,0,1,2.392,3.792L88.2,51.447H2.99Z" transform="translate(0 -19.815)"/></g></g><g transform="translate(64.453 104.384) rotate(10)"><path class="f" d="M0,53.341,52.283,24.706Q65.325,9.219,77.982.65c2.579-1.076,7.088-1.728,2.871,5.757S72.537,21.954,74.686,24.26s7.505-.915,10.068,2.916q2.563,3.831-27.457,12.1L19.307,74.064ZM81.885,77.5l22.966-12.616q4.834-18.393,11.556-18.508c3.443-1.6-2.553,13.892,3.974,12.548s22.456-13.191,25.2-10.785c4.061,3.559.44,14.486-3.826,19.922-7.973,10.159-14.575,13.633-30.891,18.183q-12.8,3.568-27.671,14.3Z" transform="translate(122.634 10.978)"/><path class="g" d="M8.292,9.586A128.466,128.466,0,0,0,79.458,0L86,24.14C65.453,38.946,38.2,49.467,16.471,45.4-.652,42.19-6.148,19.994,8.292,9.586Z" transform="translate(87.482 49.77) rotate(-9)"/><path class="g" d="M121.83,94.537q29.162,7.273,97.807-17.153,17.027,35.225,15.742,50.225c-39.258,20.507-72.905,29.65-100.626,30.253.881,16.449-1.121,32.1-7.847,46.4-13.827,29.4-94.79,2.172-122.012,7.531-17.047-55.363,15.914-77.863,15.941-113.288C20.864,59.713,52.013,0,56.6,0H98.391C100.7,29.627,112.3,62.279,121.83,94.537Z" transform="translate(0 0)"/></g></g></g><g transform="translate(399.522 342.354)"><g transform="translate(411.478 542.646) rotate(180)"><g transform="translate(86.302 373)"><g transform="translate(35.106 0)"><path class="h" d="M12.086,56.33C5.345,64.242.783,73.937,1.546,84.8c2.2,31.3,45.772,24.417,54.248,8.618s7.469-55.875-3.486-58.7c-4.369-1.126-13.676,1.632-23.148,7.342L35.106,0H0Z"/></g><path class="b" d="M106.452,74.365a7.594,7.594,0,0,1-5.318,5.392,7,7,0,0,1-1.957.195c-.236-.009-.3-.077-.412.088a2.164,2.164,0,0,0-.117.565,10.65,10.65,0,0,1-.4,1.318,10.758,10.758,0,0,1-2.595,3.857,13.061,13.061,0,0,1-7.845,3.712,11.438,11.438,0,0,1-4.716-.643,18.676,18.676,0,0,1-2.29-.979c-.223-.112-.948-.661-1.172-.625-.248.039-.745.655-.947.809a13.864,13.864,0,0,1-8.662,2.637c-3.5-.026-6.868-.2-9.786-2.334a19.574,19.574,0,0,1-1.766-1.467c-.295-.274-.581-.558-.853-.855q-.247-.268-.479-.549c-.262-.318-.22-.423-.586-.2a7.274,7.274,0,0,1-4.671,1.051,10.453,10.453,0,0,1-2.82-.8c-.306-.131-1.015-.653-1.341-.658s-1.022.479-1.356.6A11.117,11.117,0,0,1,40.732,86a14.552,14.552,0,0,1-5.525-2.173,7.428,7.428,0,0,1-2.048-1.862c-.241-.332-.458-.684-.731-.992-.16-.181-.476-.366-.562-.594a12.134,12.134,0,0,1-2.342,1.034,5.768,5.768,0,0,1-3.3-.125,13.1,13.1,0,0,1-5.2-3.692,14.753,14.753,0,0,1-1.924-2.583q-.392-.666-.72-1.366a5.083,5.083,0,0,0-.316-.712c-.18-.262-.3-.267-.627-.381a10.137,10.137,0,0,1-4.317-2.89,9.951,9.951,0,0,1-2.235-4.739,2.414,2.414,0,0,0-.09-.583c-.082-.076-.416-.043-.542-.057a11.391,11.391,0,0,1-1.3-.229,10.709,10.709,0,0,1-2.281-.82A11.919,11.919,0,0,1,.842,56.263a14.154,14.154,0,0,1,.221-9.69,9.466,9.466,0,0,1,.72-1.419c.172-.277.228-.278.116-.568-.125-.323-.352-.637-.5-.953a13.679,13.679,0,0,1-1.033-3.24,15.194,15.194,0,0,1-.178-5.6,8.085,8.085,0,0,1,.865-2.457,7.049,7.049,0,0,1,.758-1.1c.149-.177.307-.346.472-.509a3.15,3.15,0,0,0,.3-.277c.2-.252.238-.045.136-.415A16.58,16.58,0,0,0,2.059,28.5c-.2-.519-.386-1.046-.553-1.577a23.267,23.267,0,0,1-.8-3.287,10.322,10.322,0,0,1,.729-6.385A6.387,6.387,0,0,1,3.237,15.1a6.7,6.7,0,0,1,1.187-.721c.215-.1.49-.146.588-.354.106-.224-.051-.668-.087-.919a15.31,15.31,0,0,1,.18-6.6A9.113,9.113,0,0,1,8.717,1.665,11.238,11.238,0,0,1,19.95,1.346a11.793,11.793,0,0,1,2.508,1.723C24.382.479,28.341.561,31.152,1.3a12.489,12.489,0,0,1,7.933,6.556c2.214-2.7,6.862-1.821,8.4,1.1a7,7,0,0,1,.709,2.3c.058.42.021.843.064,1.26a6.508,6.508,0,0,0,.614,1.56,8.609,8.609,0,0,1,.654,3.109,15.78,15.78,0,0,1-.119,1.669,5.735,5.735,0,0,0,.17,1.466,6.706,6.706,0,0,0-2.839.355,5.606,5.606,0,0,0-2.195,1.544,12.808,12.808,0,0,0-2.762,5.163c-1.248,4.089-.737,8.994,3.376,11.238,1.916,1.045,7.655,1.042,9.937.525,2.4-.543,5.119-5.837,5.253-6.335.083-.308.041-.689.324-.894.622-.451,1.647.332,2.106.718a8.306,8.306,0,0,1,1.845,2.454A30.36,30.36,0,0,1,67.15,41.3c.468,1.654.767,3.36,1.378,4.971a7.6,7.6,0,0,0,3.058,3.946,26.928,26.928,0,0,0,5.261,2.13,13.059,13.059,0,0,1,4.867,2.674,6.727,6.727,0,0,1,.835.931c.191.267.38.778.671.947.453.263,1.113-.421,1.5-.67a17.393,17.393,0,0,0,4.842-4.807A29.908,29.908,0,0,0,92.783,45.7c.639-1.539,1.038-3.511,2.162-4.772.5-.563,4.233-.9,5.441-.412a6.874,6.874,0,0,1,2.968,2.569,3.991,3.991,0,0,1,.337,2.616c-.1.528-.317,1.02-.434,1.539a4.8,4.8,0,0,1-.4,1.245,3.072,3.072,0,0,1-1.915,1.526,8.991,8.991,0,0,1,2.068,2.8,12.037,12.037,0,0,1,1.071,3.654,4.436,4.436,0,0,1-.593,2.846,7.5,7.5,0,0,1-2.43,2.017,15.808,15.808,0,0,1,3.383,3.684C106.252,67.723,107.371,71.137,106.452,74.365Z" transform="translate(0 40.957)"/></g><g class="i" transform="translate(0 0)"><g transform="translate(0 8.776)"><path class="j" d="M23.4,181.38H191.619a23.4,23.4,0,0,0,23.4-23.4V23.4A23.4,23.4,0,0,0,191.619,0H23.4A23.4,23.4,0,0,0,0,23.4V157.976A23.4,23.4,0,0,0,23.4,181.38Zm23.4-40.957a5.851,5.851,0,0,1-5.851-5.851V46.808a5.851,5.851,0,0,1,5.851-5.851H168.215a5.851,5.851,0,0,1,5.851,5.851v87.765a5.851,5.851,0,0,1-5.851,5.851Z" transform="translate(0 0)"/></g><path class="h" d="M222.88,0c-18.742,41.481-32.3,77.6-37.736,96.658-9.315,32.63-16.4,61.343-18.193,72.065-4.271,25.57,32.856,27.059,37.764,14.351,7.428-19.234,20.394-82.427,35.975-177.878ZM5.485,130.179c17.2,6.8,77.414,28.068,106.457,34.085,8.346,1.729,16.435,3.336,24.04,4.787,22.605,4.315,34.317-36.465,12.545-39.6-54.22-7.8-131.085-15.862-137.663-16.766C1.645,111.42-5.322,125.907,5.485,130.179Z" transform="translate(96.743 13.662)"/><path class="k" d="M93.012,145.141,0,192.489V202.8H11.062Q146.038,168.4,149.008,158.713q.032-.1.059-.209.068-.089.134-.179C167.033,133.8,177.713,14.063,181.218,5.1L147.046,0C133.975,48.472,92.153,82.24,93.264,140.3A19.019,19.019,0,0,0,93.012,145.141Z" transform="translate(153.588 48.795)"/><path class="k" d="M73.551,36.966c-8.51,1.7-16.347,3.224-23.054,4.4-43.317,7.6-55.948,30.785-48.48,81.376H81.828C94.866,119,162.619,90.584,197.773,75.471c23.266-10,15.932-46.059,2.756-55.443a1.287,1.287,0,0,0-.731-1.142C128.922-10.489,72.852,4.925,54.122,0L45.458,27.33Z" transform="translate(87.765 128.85)"/><g transform="matrix(0.438, -0.899, 0.899, 0.438, 87.84, 141.031)"><path class="l" d="M2.455,21.353Q0,14.8,0,11.547A73.4,73.4,0,0,1,1.318,0h82.5q3.216,10.632-3.713,11.479T68.6,13.01L30.249,30.1a1.463,1.463,0,0,1-1.932-.74l-.016-.038-2.465-5.979q-6.414-2.993-10.424-2.993-3.258,0-9,2.632h0a2.925,2.925,0,0,1-3.878-1.44Q2.491,21.451,2.455,21.353Z" transform="translate(0 0)"/></g><g transform="translate(308.639)"><path class="l" d="M2.455,21.353Q0,14.8,0,11.547A73.4,73.4,0,0,1,1.318,0h82.5q3.216,10.632-3.713,11.479T68.6,13.01L30.25,30.1a1.463,1.463,0,0,1-1.932-.74l-.016-.038-2.465-5.979q-6.414-2.993-10.424-2.993-3.258,0-9,2.632h0a2.926,2.926,0,0,1-3.878-1.44Q2.491,21.451,2.455,21.353Z" transform="translate(0)"/></g></g><g transform="translate(4.626 140.194)"><path class="h" d="M233.866,134.622,275.3,94.2q18.085-7.714,29.636-17.036c1.732-2.089,3.617-6.091-4.531-4.3s-16.8,3.308-18.33.659,2.981-6.71.151-10.178q-2.83-3.468-19.036,22.061l-43.088,25.4Zm-183.92-5.7,30.568-.12Q52.2,37.408,49.946,31.816c-3.385-8.388,3.778-21.163,6.841-28.028C46.81-.676,47.873,15.856,35.289,10,23.8,4.657,15.065-5.026,1.794,3.163c-1.632,1.007-3.42,4.8.9,7.759,10.763,7.38,26.272,20.3,28.367,24.547Q35.348,44.166,49.946,128.922Z" transform="translate(0 0)"/><path class="b" d="M0,187.718l12.411,3.264Q52.064,112.539,138.96,53.2L102.454,0C42.887,58.333,3.879,120.48,0,187.718Z" transform="translate(120.451 70.183) rotate(-5)"/><path class="m" d="M0,0H112.631Q73.49,95.169,73.49,161.691l-33.975,5.062C12.813,123.809,5.273,70.936,0,0Z" transform="translate(81.676 98.233)"/><path class="n" d="M89.992,215l.013.024h2.218q3.981-.137,12.126-.494l8.21-23.461q1.3-42.907,15.214-172.939H53.94Q54.231,9.149,54.9,0H0Q12.318,138.967,89.965,215.023Z" transform="translate(30.48 49.963)"/><path class="o" d="M5.1,77.184Q8.253,21.2,20.883,0H.243A385.929,385.929,0,0,0,5.1,77.184Z" transform="translate(84.196 67.515)"/><path class="p" d="M0,0,36.406,16.925V0Z" transform="translate(100.853 112.861)"/></g></g></g></g></svg>