<svg xmlns="http://www.w3.org/2000/svg" width="100" height="100" viewBox="0 0 100 100"><g fill="rgba(0,0,0,0)" stroke="rgba(0,0,0,0)" stroke-width="1"><rect width="100" height="100" stroke="none"/><rect x="0.5" y="0.5" width="99" height="99" fill="none"/></g><path d="M39.5,13l-1,2Z" fill="rgba(0,0,0,0.13)"/><path d="M50.5,14,53,15.5,51.5,15Z" fill="#fff"/><path d="M62.5,15l2,3Z" fill="rgba(0,0,0,0.13)"/><path d="M35.5,17l-1,2Z" fill="rgba(0,0,0,0.13)"/><path d="M40.5,18l-1,2Z" fill="rgba(0,0,0,0.13)"/><path d="M22.5,26l-1,2Z" fill="rgba(0,0,0,0.13)"/><path d="M31.5,27l.5,2.5H31Z" fill="#fff"/><path d="M78.5,27l2,3Z" fill="rgba(0,0,0,0.13)"/><path d="M86.5,33l.5,4.5H86Z" fill="#fff"/><path d="M62.5,37,64,39.5H63Z" fill="#fff"/><path d="M18.5,44l2,3Z" fill="rgba(0,0,0,0.13)"/><path d="M33.5,44l1,2Z" fill="rgba(0,0,0,0.13)"/><path d="M81.5,44l-2,3Z" fill="rgba(0,0,0,0.13)"/><path d="M15.5,48l1,2Z" fill="rgba(0,0,0,0.13)"/><path d="M84.5,48l-1,2Z" fill="rgba(0,0,0,0.13)"/><path d="M77.5,52,77,53.5,76.5,55,76,53.5Z" fill="#fff"/><path d="M43.5,56l.5,5.5H43Z" fill="#fff"/><path d="M56.5,57l.5,4.5H56Z" fill="#fff"/><path d="M76.5,57l.5,3.5H76Z" fill="#fff"/><path d="M81.5,60l1,2Z" fill="rgba(0,0,0,0.13)"/><path d="M38.5,61l-1,2Z" fill="rgba(0,0,0,0.13)"/><path d="M61.5,61l1,2Z" fill="rgba(0,0,0,0.13)"/><path d="M93.5,66l1,2Z" fill="rgba(0,0,0,0.13)"/><path d="M5.5,67l-3,4Z" fill="rgba(0,0,0,0.13)"/><path d="M22.5,69l-1,2Z" fill="rgba(0,0,0,0.13)"/><path d="M77.5,69l1,2Z" fill="rgba(0,0,0,0.13)"/><path d="M97.5,70l1,2Z" fill="rgba(0,0,0,0.13)"/><path d="M92.5,71l1,2Z" fill="rgba(0,0,0,0.13)"/><path d="M18.5,72l-1,2Z" fill="rgba(0,0,0,0.13)"/><path d="M81.5,72l1,2Z" fill="rgba(0,0,0,0.13)"/><path d="M76.5,74l1,2Z" fill="rgba(0,0,0,0.13)"/><path d="M1.5,80l12.5.5L1.5,81Z" fill="#fff"/><path d="M0,0H100V73.5H99v-2L93.5,66l-10-4L81,59.5v-4l5-9,1-13Q85.9,26.1,80.5,23L77,21.5,76.5,20h-10l-4-5L56,12.5,55.5,10h-9Q38.1,12.2,34,18.5L33.5,20h-9L17,24l-3,5.5-1,5,1,1v11l5,9V61L5.5,67,2,70.5.5,74Z" fill="rgba(0,0,0,0)"/><path d="M47.5,15h4L62,21.5l2,9-2,7,1,4-3,3v3l-4,6v8L61.5,68A47.756,47.756,0,0,1,79,76l2,6H19.5L19,80.5,22.5,75l16-7L43,63.5q2.3-3.2,1-10L38.5,43q-2.6.8-1.5-2.5v-2l1-3q-2.6-2.9-2-9A14.206,14.206,0,0,1,42.5,17Z" fill="rgba(0,0,0,0)"/><path d="M25.5,25Q30,24,31,26.5l2,9q-2.5,1.5-1,7l7,12v6L35.5,64l-13,5L17,73.5,15.5,76,5,75.5,8.5,71,22,65l2-3.5v-8q-3.6-1.4-3-7l-3-3,1-5q-2.2-1.2-1-6L20,28Z" fill="rgba(0,0,0,0)"/><path d="M68,25h5.5q-1,3,4,2,5.1,2.4,4.5,10.5l-1,5,1,1-3,3q.6,5.6-3,7v7L80.5,66l10,4L95,74.5,94.5,76h-10l-3-4a39.508,39.508,0,0,0-17-8L61,60.5v-6l7-12V25Z" fill="rgba(0,0,0,0)"/><path d="M.5,80l1,1H14l-1,3.5L14.5,86h71L87,83.5,86,80h14v20H.5L0,99.5Z" fill="rgba(0,0,0,0)"/><path d="M40.5,17l-2,3Z" fill="rgba(0,0,0,1)"/><path d="M64.5,27l.5,3.5H64Z" fill="#fff"/><path d="M63.5,42l-1,2Z" fill="rgba(0,0,0,1)"/><path d="M34.5,44l1,2Z" fill="rgba(0,0,0,1)"/><path d="M5.5,68l-2,3Z" fill="rgba(0,0,0,1)"/><path d="M46.5,11h8l.5,1.5,10,7L66.5,22l1-1h8L77,24l6,2.5q3.3,3.2,3,10-2.2,1.3-1,6v2l-5,10v6L96,69l3,5.5v4L97.5,80H85l1,3.5L83.5,86h-67q-4.2-1.8-1.5-3.5L14.5,80H2.5Q0,79,1,74.5L7.5,67l10-4L20,60.5v-6l-5-8v-11l-1-2q1.1-7.4,6.5-10.5,3.6-2.9,11-2L34,22.5,37,16Zm.5,3-6,3L35,27q-1,6,2,9l-1,2v5l7,11q1,6-1,10l-2,2L24,73l-6,7,1,2H82l-1-4-4-5L61,66l-4-4V54q5-3,4-10l3-1q1-5-1-6l2-6-2-9-5-5q-5,1-4-1Q52,12,47,14ZM26,24l-4,2-5,7,1,13,5,9-1,8-2,2L6,71,4,77H17V76l5-5,16-7,2-2V55L32,40l2-4L31,26Q32,23,26,24Zm41,0,1,5-2,7,1,2q1,4-1,6,1,2-2,1L60,55v7l3,2,16,7,5,5H96l-1-3-2-3L80,64l-3-3V55l5-9q-2-7,1-8l-1-8-8-6Z" fill="#fff"/><path d="M47.5,10l2.5.5-2.5.5Z" fill="#fff"/><path d="M54.5,10l1,2Z" fill="rgba(0,0,0,0.59)"/><path d="M37.5,15l-1,2Z" fill="rgba(0,0,0,0.59)"/><path d="M53.5,16,57,17.5l-2.5.5Z" fill="#fff"/><path d="M60.5,19l1,2Z" fill="rgba(0,0,0,0.59)"/><path d="M25.5,20l2.5.5-2.5.5Z" fill="#fff"/><path d="M68.5,20l2.5.5-2.5.5Z" fill="#fff"/><path d="M26.5,24q4.8-.7,5.5,2.5L29.5,25Q25.5,25.8,26.5,24Z" fill="#fff"/><path d="M81.5,24l2,3Z" fill="rgba(0,0,0,0.59)"/><path d="M23.5,54l.5,6.5H23Z" fill="#fff"/><path d="M56.5,54l.5,2.5H56Z" fill="#fff"/><path d="M19.5,55l.5,4.5H19Z" fill="#fff"/><path d="M39.5,55l.5,3.5H39Z" fill="#fff"/><path d="M60.5,55l.5,3.5H60Z" fill="#fff"/><path d="M80.5,55l.5,2.5H80Z" fill="#fff"/><path d="M57.5,63l3,4Z" fill="rgba(0,0,0,0.59)"/><path d="M78.5,63l1,2Z" fill="rgba(0,0,0,0.59)"/><path d="M41.5,64l-2,3Z" fill="rgba(0,0,0,0.59)"/><path d="M95.5,68l1,2Z" fill="rgba(0,0,0,0.59)"/><path d="M8.5,70l-3,4Z" fill="rgba(0,0,0,0.59)"/><path d="M17.5,74l-1,2Z" fill="rgba(0,0,0,0.59)"/><path d="M82.5,74l1,2Z" fill="rgba(0,0,0,0.59)"/><path d="M50.5,10l2.5.5-2.5.5Z" fill="#fff"/><path d="M62.5,16l2,3Z" fill="rgba(0,0,0,0.91)"/><path d="M71.5,20l2.5.5-2.5.5Z" fill="#fff"/><path d="M75.5,20l1,2Z" fill="rgba(0,0,0,0.91)"/><path d="M18.5,24l-1,2Z" fill="rgba(0,0,0,0.91)"/><path d="M21.5,26l-2,3Z" fill="rgba(0,0,0,0.91)"/><path d="M35.5,27l.5,2.5H35Z" fill="#fff"/><path d="M79.5,27l1,2Z" fill="rgba(0,0,0,0.91)"/><path d="M82.5,33l.5,3.5H82Z" fill="#fff"/><path d="M36.5,42l1,2Z" fill="rgba(0,0,0,0.91)"/><path d="M41.5,51l1,2Z" fill="rgba(0,0,0,0.91)"/><path d="M58.5,51l-1,2Z" fill="rgba(0,0,0,0.91)"/><path d="M21.5,63l-1,2Z" fill="rgba(0,0,0,0.91)"/><path d="M19.5,72l-1,2Z" fill="rgba(0,0,0,0.91)"/><path d="M80.5,72l1,2Z" fill="rgba(0,0,0,0.91)"/><path d="M22.5,74l-2,3Z" fill="rgba(0,0,0,0.91)"/><path d="M77.5,74l2,3Z" fill="rgba(0,0,0,0.91)"/><path d="M4.5,75l1,1,10.5.5L4,77Z" fill="#fff"/><path d="M.5,76,1,78.5H0Z" fill="#fff"/><path d="M99.5,76l.5,2.5-2,1Z" fill="#fff"/></svg>