<svg id="Component_1_1" data-name="Component 1 – 1" xmlns="http://www.w3.org/2000/svg" width="373" height="90" viewBox="0 0 373 90">
  <text id="SATYA_WACANA" data-name="SATYA WACANA" transform="translate(101 34)" fill="#086788" font-size="30" font-family="Helvetica-Bold, Helvetica" font-weight="700" letter-spacing="0.1em"><tspan x="0" y="0">SATYA WACANA</tspan></text>
  <text id="COUNSELING" transform="translate(373 68)" fill="#086788" font-size="30" font-family="Helvetica-Bold, Helvetica" font-weight="700" letter-spacing="0.26em"><tspan x="-270.21" y="0">COUNSELING</tspan></text>
  <g id="Rectangle_1" data-name="Rectangle 1">
    <g id="Sizing_Rectangle" data-name="Sizing Rectangle" fill="rgba(0,0,0,0)" stroke="rgba(0,0,0,0)" stroke-width="1">
      <rect width="90" height="90" stroke="none"/>
      <rect x="0.5" y="0.5" width="89" height="89" fill="none"/>
    </g>
    <path id="rgba_0_0_0_0_" data-name="rgba(0,0,0,0)" d="M0,0H89.564l.088.088v8.58l-.175.35.175.876h-.175a4.7,4.7,0,0,0-2.189-3.765l-1.226-.7-1.4-.35H17.948l-1.4.35L14.533,6.654,13.308,8.667l-.35,1.226L12.87,37.471,12.695,9.981,12.607,37.3H5.516q-.263.438-1.226.175a6.035,6.035,0,0,0-3.064,2.014A5.037,5.037,0,0,0,.088,42.374L0,41.411l.175-.35L0,40.886ZM18.386,4.728V4.9H84.4ZM17.16,4.9v.175h.525ZM85.1,4.9v.175h.35Zm-68.464.175v.175h.35Zm1.4,3.677V8.93H84.573Zm-5.078.35-.175.525h.175Zm72.316,0,.35.525V9.455ZM35.37,29.592v.175H35.9Zm1.4,0v.175H37.3Zm12.607,0v.175H49.9Zm1.4,0v.175H51.3Zm12.607,0v.175h.525Zm1.4,0v.175h.525Zm-13.308.175v.175h.35ZM35.2,29.942l-1.051.525a4.763,4.763,0,0,0-1.751,2.451,4.572,4.572,0,0,0,.525,2.977,3.942,3.942,0,0,0,2.8,1.751h1.226l1.576-.7A5.332,5.332,0,0,0,40.1,34.67V33.094l-.7-1.576-1.576-1.4A6.215,6.215,0,0,0,35.2,29.942Zm14.008,0-1.051.525A3.275,3.275,0,0,0,46.4,32.919v1.926L47.452,36.6l2.276,1.051h1.226l1.576-.7a3.946,3.946,0,0,0,1.576-2.451v-1.4l-.875-1.751a3.349,3.349,0,0,0-1.926-1.4Zm14.008,0-1.051.525-1.226,1.226-.525,1.051a1.045,1.045,0,0,1-.175,1.051,5.6,5.6,0,0,0,.876,2.451,4.408,4.408,0,0,0,2.627,1.4,4.979,4.979,0,0,0,2.8-.7,4.047,4.047,0,0,0,1.576-2.627,3.3,3.3,0,0,0-.876-2.977,3.349,3.349,0,0,0-1.926-1.4ZM32.394,32.218l-.175.525h.175Zm21.888.175-.175.525h.175Zm14.008.175-.175.525h.175Zm-22.063.175-.175.875h.175Zm14.008,0-.175.525h.175Zm-28.016.175-.175,1.751h.175Zm8.23.175-.175,1.4h.175Zm14.008,0-.175,1.226h.175Zm14.008.175-.175.876h.175Zm-22.238.525-.175.875h.175Zm14.008.35-.175.7h.175Zm-5.953.35-.175.525h.175Zm14.008,0-.175.525h.175ZM4.553,37.121V37.3h.525Zm-.7.175v.175H4.2Zm31.343.35v.175h.35Zm1.926,0v.175h.35Zm14.008,0v.175h.35Zm14.008,0v.175h.35ZM35.9,37.822V38h.875Zm14.008,0V38h.7Zm14.008,0V38h.7Z" fill="rgba(0,0,0,0)"/>
    <path id="rgba_0_0_0_0_2" data-name="rgba(0,0,0,0)" d="M95.488,49H162.2l1.138.788.35.7v61.46l-.438-.263L153.1,102.581a6.619,6.619,0,0,0-3.327-1.751H96.014l-1.488-.525L94,99.341V50.488l.788-1.138ZM94.35,50.4l-.175,48.853h.175Zm69.165.175-.175,60.76-.175.175.35.175Zm-14.533,49.9v.175h.876Zm-19.261,3.852.175.35.175-.175h18.736Zm23.814,3.5.175.35h.175Z" transform="translate(-77.541 -40.42)" fill="rgba(78,115,223,0)"/>
    <path id="rgba_0_0_0_0_3" data-name="rgba(0,0,0,0)" d="M52,364H71.353l.7.175,2.1,1.576,11.557,10.506a2.675,2.675,0,0,0,1.751.7,2.379,2.379,0,0,0,1.839-1.138l.263-.788.088.438-.175.35.175.175v13.92H.088L0,389.827v-6.479l.088-.613a2.221,2.221,0,0,0,.876,1.576,2.51,2.51,0,0,0,2.1.35l8.23-7.179,1.4-.525H47.54a5.642,5.642,0,0,0,3.239-2.014A6.055,6.055,0,0,0,52,371.967Zm.175,8.23-.175.7h.175Zm-.175.7-.175.525H52Zm-3.677,3.852v.175h.35Zm-.525.175v.175h.35Zm-35.02.175v.175h34.67Zm-.7.175v.175h.35ZM1.751,384.837v.175H2.977Z" transform="translate(0 -300.264)" fill="rgba(0,0,0,0)"/>
    <path id="rgba_61_66_236_0.98_" data-name="rgba(61,66,236,0.98)" d="M79.29,30h67.589a5.513,5.513,0,0,1,4.465,4.465V99.6l-.963,1.313a1.793,1.793,0,0,1-1.576.35l-.875-.35L134.972,89.184l-1.226-.7H79.99l-2.276-.7L75.875,86.12,75,84.018V34.29a5.563,5.563,0,0,1,1.839-3.064Zm.963,3.152-1.226.525-.876,1.4V83.406l.35.876,1.226.876h53.931a6.918,6.918,0,0,1,3.5,1.576l9.806,8.93,1.226.875V35.253l-.35-.876a2.794,2.794,0,0,0-1.576-1.226Z" transform="translate(-61.867 -24.747)" fill="#086788"/>
    <path id="rgba_61_66_236_0.98_2" data-name="rgba(61,66,236,0.98)" d="M188.226,170.987q2.784-.07,3.765,1.663a4.066,4.066,0,0,1,.525,3.152,4.274,4.274,0,0,1-1.663,2.189,3.631,3.631,0,0,1-2.8.525,4.569,4.569,0,0,1-2.189-1.313,3.622,3.622,0,0,1-.876-2.8,3.814,3.814,0,0,1,1.839-2.889Z" transform="translate(-152.593 -141.045)" fill="#086788"/>
    <path id="rgba_61_66_236_0.98_3" data-name="rgba(61,66,236,0.98)" d="M268.226,170.978q2.627-.088,3.59,1.488,1,.928.7,3.152a3.939,3.939,0,0,1-1.663,2.364,3.837,3.837,0,0,1-2.977.525,3.709,3.709,0,0,1-2.014-1.313,3.622,3.622,0,0,1-.875-2.8,3.814,3.814,0,0,1,1.839-2.889Z" transform="translate(-218.585 -141.036)" fill="#086788"/>
    <path id="rgba_61_66_236_0.98_4" data-name="rgba(61,66,236,0.98)" d="M348.239,170.978q2.627-.088,3.59,1.488,1,.928.7,3.152a3.938,3.938,0,0,1-1.663,2.364,3.837,3.837,0,0,1-2.977.525,4.217,4.217,0,0,1-2.189-1.488l-.7-1.576v-1.226a4.252,4.252,0,0,1,1.313-2.364Z" transform="translate(-284.59 -141.036)" fill="#086788"/>
    <path id="rgba_46_69_246_0.09_" data-name="rgba(46,69,246,0.09)" d="M104.5,27l66.1.088-66.1.088Z" transform="translate(-86.202 -22.272)" fill="rgba(46,69,246,0.09)"/>
    <path id="rgba_46_69_246_0.09_2" data-name="rgba(46,69,246,0.09)" d="M83.064,28l.613.088-.7.175.35.175-.263.088-.525-.175v.175l.263.088-.263.088-.35-.175v.35l-.35-.175v.35l-.35-.175q.3.35-.35.7l-.35-.175-.175.525-.175-.175L80,30.014A6.035,6.035,0,0,1,83.064,28Z" transform="translate(-65.992 -23.097)" fill="rgba(46,69,246,0.09)"/>
    <path id="rgba_46_69_246_0.09_3" data-name="rgba(46,69,246,0.09)" d="M485.5,28l.438.088-.438.088Z" transform="translate(-400.489 -23.097)" fill="rgba(46,69,246,0.09)"/>
    <path id="rgba_46_69_246_0.09_4" data-name="rgba(46,69,246,0.09)" d="M102.5,29l66.8.088-66.8.088Z" transform="translate(-84.552 -23.922)" fill="rgba(46,69,246,0.09)"/>
    <path id="rgba_46_69_246_0.09_5" data-name="rgba(46,69,246,0.09)" d="M487.025,29l.263.088-.788.263v-.175Z" transform="translate(-401.314 -23.922)" fill="rgba(46,69,246,0.09)"/>
    <path id="rgba_46_69_246_0.09_6" data-name="rgba(46,69,246,0.09)" d="M490.85,30l.788.438-.088.438-.175-.525-.35.175v-.35l-.525.175v-.175Z" transform="translate(-404.613 -24.747)" fill="rgba(46,69,246,0.09)"/>
    <path id="rgba_46_69_246_0.09_7" data-name="rgba(46,69,246,0.09)" d="M498.088,33l1.138.963.525.7-.438.088-.438-.438.175-.35-.438-.263q-.3.49-.613-.263Z" transform="translate(-410.8 -27.222)" fill="rgba(46,69,246,0.09)"/>
    <path id="rgba_46_69_246_0.09_8" data-name="rgba(46,69,246,0.09)" d="M74.963,41q.525.263,0,.525l-.263-.088.175.35h-.35l.175.35h-.35l.175.525H74.35l-.088-.263-.175.35L74,42.488Z" transform="translate(-61.043 -33.821)" fill="rgba(46,69,246,0.09)"/>
    <path id="rgba_46_69_246_0.09_9" data-name="rgba(46,69,246,0.09)" d="M506.5,44l.613.263.175.525-.263.438-.088-.263.175-.35h-.35l.175-.35Q506.57,44.543,506.5,44Z" transform="translate(-417.812 -36.296)" fill="rgba(46,69,246,0.09)"/>
    <path id="rgba_46_69_246_0.09_10" data-name="rgba(46,69,246,0.09)" d="M104.5,48l66.1.088-66.1.088Z" transform="translate(-86.202 -39.595)" fill="rgba(46,69,246,0.09)"/>
    <path id="rgba_46_69_246_0.09_11" data-name="rgba(46,69,246,0.09)" d="M95.138,49l.35.175,66.626.088-66.626.088-.788.35-.263.525-.263-.088.175.35V99.166h-.175V50.488L94,50.138l.525-.175-.175-.35q.21-.473.438-.088l.263-.088Q94.665,49.228,95.138,49Z" transform="translate(-77.541 -40.42)" fill="rgba(46,69,246,0.09)"/>
    <path id="rgba_46_69_246_0.09_12" data-name="rgba(46,69,246,0.09)" d="M484.438,50v.35l.438.263.088.263.263-.088-.263.438-.7-.875L484,50.263Z" transform="translate(-399.251 -41.245)" fill="rgba(46,69,246,0.09)"/>
    <path id="rgba_46_69_246_0.09_13" data-name="rgba(46,69,246,0.09)" d="M510.263,50l.088.263-.263.613L510,50.438Z" transform="translate(-420.699 -41.245)" fill="rgba(46,69,246,0.09)"/>
    <path id="rgba_46_69_246_0.09_14" data-name="rgba(46,69,246,0.09)" d="M73.088,52l.088.438H73Z" transform="translate(-60.218 -42.895)" fill="rgba(46,69,246,0.09)"/>
    <path id="rgba_46_69_246_0.09_15" data-name="rgba(46,69,246,0.09)" d="M74.088,56l.088,27.578H74Z" transform="translate(-61.043 -46.194)" fill="rgba(46,69,246,0.09)"/>
    <path id="rgba_46_69_246_0.09_16" data-name="rgba(46,69,246,0.09)" d="M72.088,57l.088,27.228H72Z" transform="translate(-59.393 -47.019)" fill="rgba(46,69,246,0.09)"/>
    <path id="rgba_46_69_246_0.09_17" data-name="rgba(46,69,246,0.09)" d="M511.088,57l.088,64.7H511Z" transform="translate(-421.524 -47.019)" fill="rgba(46,69,246,0.09)"/>
    <path id="rgba_46_69_246_0.09_18" data-name="rgba(46,69,246,0.09)" d="M93.088,58l.088,48.415H93Z" transform="translate(-76.716 -47.844)" fill="rgba(46,69,246,0.09)"/>
    <path id="rgba_46_69_246_0.09_19" data-name="rgba(46,69,246,0.09)" d="M436.057,58l.088,61.022q-.385.21.088.438l.175-61.285.088,61.46-.7-.438q.49-.3-.263-.613l-.35.175-1.138-1.138q.4-.228-.088-.438l-.35-.175-.175.175-.963-.963q.49-.315-.263-.613l-.35.175-1.138-1.138q.473-.3-.263-.613l-.35.175-1.138-1.138q.4-.21-.088-.438l-.35-.175-.175.175-.963-.963q.473-.315-.263-.613l-.35.175-1.138-1.138q.4-.21-.088-.438l-.35.175q-.648-.35-.35-.7l-.35.175v-.525l11.382,9.981Z" transform="translate(-350.17 -47.844)" fill="rgba(46,69,246,0.09)"/>
    <path id="rgba_46_69_246_0.09_20" data-name="rgba(46,69,246,0.09)" d="M201.5,169l.613.088-.613.088Z" transform="translate(-166.217 -139.408)" fill="rgba(46,69,246,0.09)"/>
    <path id="rgba_46_69_246_0.09_21" data-name="rgba(46,69,246,0.09)" d="M209.5,169l.613.088-.613.088Z" transform="translate(-172.816 -139.408)" fill="rgba(46,69,246,0.09)"/>
    <path id="rgba_46_69_246_0.09_22" data-name="rgba(46,69,246,0.09)" d="M281.5,169l.613.088-.613.088Z" transform="translate(-232.209 -139.408)" fill="rgba(46,69,246,0.09)"/>
    <path id="rgba_46_69_246_0.09_23" data-name="rgba(46,69,246,0.09)" d="M289.374,169a3.561,3.561,0,0,1,2.889,1.663l-.438.088-.613-.613.088-.263-.35.175-.788-.438.35-.175-.438-.088-.525.175v-.175l.438-.088Q289.216,169.333,289.374,169Z" transform="translate(-238.682 -139.408)" fill="rgba(46,69,246,0.09)"/>
    <path id="rgba_46_69_246_0.09_24" data-name="rgba(46,69,246,0.09)" d="M361.5,169l.613.088-.613.088Z" transform="translate(-298.201 -139.408)" fill="rgba(46,69,246,0.09)"/>
    <path id="rgba_46_69_246_0.09_25" data-name="rgba(46,69,246,0.09)" d="M369.374,169l.963.263-.788.263v-.175l.438-.088Q369.216,169.333,369.374,169Z" transform="translate(-304.674 -139.408)" fill="rgba(46,69,246,0.09)"/>
    <path id="rgba_46_69_246_0.09_26" data-name="rgba(46,69,246,0.09)" d="M189.014,170l.788.263-.438.088-.35-.175v.35l-.35-.175v.35l-.35-.175.088.263-.963.963-.438-.088A4.06,4.06,0,0,1,189.014,170Z" transform="translate(-154.256 -140.233)" fill="rgba(46,69,246,0.09)"/>
    <path id="rgba_46_69_246_0.09_27" data-name="rgba(46,69,246,0.09)" d="M214.5,170l.788.438-.088.438-.175-.525-.525.175v-.175l.263-.088Z" transform="translate(-176.941 -140.233)" fill="rgba(46,69,246,0.09)"/>
    <path id="rgba_46_69_246_0.09_28" data-name="rgba(46,69,246,0.09)" d="M266.539,170l.788.263-.438.088-.35-.175v.35l-.35-.175v.35l-.35-.175.088.263-1.138,1.138-.263-.088.175.35h-.35l.175.35h-.35l-.088.263-.088-.263a4.366,4.366,0,0,1,1.839-2.189Z" transform="translate(-217.774 -140.233)" fill="rgba(46,69,246,0.09)"/>
    <path id="rgba_46_69_246_0.09_29" data-name="rgba(46,69,246,0.09)" d="M353.112,170l.788.263-.438.088-.35-.175v.35l-.35-.175v.35l-.35-.175-.175.525q-.613-.35.175-.7Z" transform="translate(-290.339 -140.233)" fill="rgba(46,69,246,0.09)"/>
    <path id="rgba_46_69_246_0.09_30" data-name="rgba(46,69,246,0.09)" d="M374.438,171v.35l.35-.175q.525.263,0,.525l-.788-.438Z" transform="translate(-308.513 -141.058)" fill="rgba(46,69,246,0.09)"/>
    <path id="rgba_46_69_246_0.09_31" data-name="rgba(46,69,246,0.09)" d="M220.088,173l1.313,1.488h-.525l.175-.35-.263.088-.788-.788Z" transform="translate(-181.478 -142.708)" fill="rgba(46,69,246,0.09)"/>
    <path id="rgba_46_69_246_0.09_32" data-name="rgba(46,69,246,0.09)" d="M381.088,174a3.554,3.554,0,0,1,1.313,1.839l-.263.438-.088-.263.175-.35h-.35l.175-.35-.525-.175.175-.35q-.35.3-.7-.35Z" transform="translate(-314.287 -143.533)" fill="rgba(46,69,246,0.09)"/>
    <path id="rgba_46_69_246_0.09_33" data-name="rgba(46,69,246,0.09)" d="M349.675,175l-.175.35Z" transform="translate(-288.302 -144.357)" fill="rgba(46,69,246,0.09)"/>
    <path id="rgba_46_69_246_0.09_34" data-name="rgba(46,69,246,0.09)" d="M345.613,178q.525.263,0,.525l-.263-.088.175.35H345Z" transform="translate(-284.59 -146.832)" fill="rgba(46,69,246,0.09)"/>
    <path id="rgba_46_69_246_0.09_35" data-name="rgba(46,69,246,0.09)" d="M304.5,180l.613.263.35,1.051-.175.175v1.4l.175.525h-.175l-.175-1.926.175-.525h-.175l-.088.263-.088-.263.175-.35h-.35l.175-.35Q304.57,180.543,304.5,180Z" transform="translate(-251.182 -148.482)" fill="rgba(46,69,246,0.09)"/>
    <path id="rgba_46_69_246_0.09_36" data-name="rgba(46,69,246,0.09)" d="M184.438,181l.438.088-.525.175.175.525h-.175l-.088-.263-.088.438.175.525h-.175l-.175-.876Z" transform="translate(-151.782 -149.307)" fill="rgba(46,69,246,0.09)"/>
    <path id="rgba_46_69_246_0.09_37" data-name="rgba(46,69,246,0.09)" d="M344.5,184l.263.788h-.175Z" transform="translate(-284.178 -151.782)" fill="rgba(46,69,246,0.09)"/>
    <path id="rgba_46_69_246_0.09_38" data-name="rgba(46,69,246,0.09)" d="M388.263,186l.088.438-.263,1.313L388,186.613Z" transform="translate(-320.061 -153.431)" fill="rgba(46,69,246,0.09)"/>
    <path id="rgba_46_69_246_0.09_39" data-name="rgba(46,69,246,0.09)" d="M263.088,187l.088.788H263Z" transform="translate(-216.949 -154.256)" fill="rgba(46,69,246,0.09)"/>
    <path id="rgba_46_69_246_0.09_40" data-name="rgba(46,69,246,0.09)" d="M265.088,187l.088.438H265Z" transform="translate(-218.598 -154.256)" fill="rgba(46,69,246,0.09)"/>
    <path id="rgba_46_69_246_0.09_41" data-name="rgba(46,69,246,0.09)" d="M343.088,187l.088.438H343Z" transform="translate(-282.941 -154.256)" fill="rgba(46,69,246,0.09)"/>
    <path id="rgba_46_69_246_0.09_42" data-name="rgba(46,69,246,0.09)" d="M183.088,188l.088,1.663H183Z" transform="translate(-150.957 -155.081)" fill="rgba(46,69,246,0.09)"/>
    <path id="rgba_46_69_246_0.09_43" data-name="rgba(46,69,246,0.09)" d="M227.685,188l.263,2.014h-.175A2.357,2.357,0,0,1,227.685,188Z" transform="translate(-187.675 -155.081)" fill="rgba(46,69,246,0.09)"/>
    <path id="rgba_46_69_246_0.09_44" data-name="rgba(46,69,246,0.09)" d="M230.088,189l.088,1.313H230Z" transform="translate(-189.727 -155.906)" fill="rgba(46,69,246,0.09)"/>
    <path id="rgba_46_69_246_0.09_45" data-name="rgba(46,69,246,0.09)" d="M310.088,189l.088,1.138H310Z" transform="translate(-255.719 -155.906)" fill="rgba(46,69,246,0.09)"/>
    <path id="rgba_46_69_246_0.09_46" data-name="rgba(46,69,246,0.09)" d="M390.088,190l.088.788H390Z" transform="translate(-321.711 -156.731)" fill="rgba(46,69,246,0.09)"/>
    <path id="rgba_46_69_246_0.09_47" data-name="rgba(46,69,246,0.09)" d="M263.088,193l.088.788H263Z" transform="translate(-216.949 -159.206)" fill="rgba(46,69,246,0.09)"/>
    <path id="rgba_46_69_246_0.09_48" data-name="rgba(46,69,246,0.09)" d="M185.088,195l.088.438H185Z" transform="translate(-152.606 -160.855)" fill="rgba(46,69,246,0.09)"/>
    <path id="rgba_46_69_246_0.09_49" data-name="rgba(46,69,246,0.09)" d="M343.088,195l.088.613H343Z" transform="translate(-282.941 -160.855)" fill="rgba(46,69,246,0.09)"/>
    <path id="rgba_46_69_246_0.09_50" data-name="rgba(46,69,246,0.09)" d="M264.263,196l.088.438-.263.438-.088-.263Z" transform="translate(-217.774 -161.68)" fill="rgba(46,69,246,0.09)"/>
    <path id="rgba_46_69_246_0.09_51" data-name="rgba(46,69,246,0.09)" d="M374.652,197l.088.438A4.575,4.575,0,0,1,372.9,199.8l-1.4.525v-.175l.438-.088-.35-.175.263-.088.35.175v-.35l.35.175v-.35l.35.175-.088-.263.963-.963.263.088-.175-.35h.35l-.175-.35h.35l-.175-.525h.175l.088.263Z" transform="translate(-306.45 -162.505)" fill="rgba(46,69,246,0.09)"/>
    <path id="rgba_46_69_246_0.09_52" data-name="rgba(46,69,246,0.09)" d="M184.5,199l.175.35.263-.088-.175.35h.35l-.175.35.525.175q-.35.613-.7-.175Z" transform="translate(-152.194 -164.155)" fill="rgba(46,69,246,0.09)"/>
    <path id="rgba_46_69_246_0.09_53" data-name="rgba(46,69,246,0.09)" d="M225.438,199l.263.613-.263.263-.438-.088Z" transform="translate(-185.602 -164.155)" fill="rgba(46,69,246,0.09)"/>
    <path id="rgba_46_69_246_0.09_54" data-name="rgba(46,69,246,0.09)" d="M344.088,200l.175.35.175-.35.438.788-.175.35q.438-.315.876.525l-.088.263.35-.175.175.525.35-.175v.35l.525-.175v.175l-.525.175-1.839-1.488-.525-.876Z" transform="translate(-283.766 -164.98)" fill="rgba(46,69,246,0.09)"/>
    <path id="rgba_46_69_246_0.09_55" data-name="rgba(46,69,246,0.09)" d="M299.076,201l.263.438L297.85,203.1l-.35.175v-.525l.35.175-.088-.263.963-.963.263.088-.175-.35Z" transform="translate(-245.408 -165.805)" fill="rgba(46,69,246,0.09)"/>
    <path id="rgba_46_69_246_0.09_56" data-name="rgba(46,69,246,0.09)" d="M266.5,204l.613.263-.438.088Z" transform="translate(-219.836 -168.28)" fill="rgba(46,69,246,0.09)"/>
    <path id="rgba_46_69_246_0.09_57" data-name="rgba(46,69,246,0.09)" d="M219.963,205l.438.088-1.4,1.226v-.35Z" transform="translate(-180.653 -169.104)" fill="rgba(46,69,246,0.09)"/>
    <path id="rgba_46_69_246_0.09_58" data-name="rgba(46,69,246,0.09)" d="M268.5,207q.3.543.613.263-.385.228.088.438l.35-.175.175.525.35-.175v.35l.525-.175v.175l-.525.175A3.034,3.034,0,0,1,268.5,207Z" transform="translate(-221.486 -170.754)" fill="rgba(46,69,246,0.09)"/>
    <path id="rgba_46_69_246_0.09_59" data-name="rgba(46,69,246,0.09)" d="M189.5,208l.525.35q.263-.438.525.175l.613.263-.35.175.35.175-.263.088-.175-.525-.35.175Z" transform="translate(-156.319 -171.579)" fill="rgba(46,69,246,0.09)"/>
    <path id="rgba_46_69_246_0.09_60" data-name="rgba(46,69,246,0.09)" d="M215.438,211v.525l-.438-.263Z" transform="translate(-177.353 -174.054)" fill="rgba(46,69,246,0.09)"/>
    <path id="rgba_46_69_246_0.09_61" data-name="rgba(46,69,246,0.09)" d="M284.663,213l.613.263-.788.263L283,213.263l1.313-.088.525.175v-.175Z" transform="translate(-233.447 -175.704)" fill="rgba(46,69,246,0.09)"/>
    <path id="rgba_46_69_246_0.09_62" data-name="rgba(46,69,246,0.09)" d="M201.025,214l1.138.088-1.663.263v-.175Z" transform="translate(-165.392 -176.529)" fill="rgba(46,69,246,0.09)"/>
    <path id="rgba_46_69_246_0.09_63" data-name="rgba(46,69,246,0.09)" d="M363.5,214l1.138.088-1.138.088Z" transform="translate(-299.851 -176.529)" fill="rgba(46,69,246,0.09)"/>
    <path id="rgba_46_69_246_0.09_64" data-name="rgba(46,69,246,0.09)" d="M211.5,215l.438.088-.438.088Z" transform="translate(-174.466 -177.353)" fill="rgba(46,69,246,0.09)"/>
    <path id="rgba_46_69_246_0.09_65" data-name="rgba(46,69,246,0.09)" d="M204.5,216l.963.088-.963.088Z" transform="translate(-168.692 -178.178)" fill="rgba(46,69,246,0.09)"/>
    <path id="rgba_46_69_246_0.09_66" data-name="rgba(46,69,246,0.09)" d="M284.5,216l.788.088-.788.088Z" transform="translate(-234.684 -178.178)" fill="rgba(46,69,246,0.09)"/>
    <path id="rgba_46_69_246_0.09_67" data-name="rgba(46,69,246,0.09)" d="M364.5,216l.788.088-.788.088Z" transform="translate(-300.676 -178.178)" fill="rgba(46,69,246,0.09)"/>
    <path id="rgba_46_69_246_0.09_68" data-name="rgba(46,69,246,0.09)" d="M95.263,337l.613.788-.088.263.525-.175v.175l-.263.088.7.175-.613.088-.613-.438q.4-.21-.088-.438-.21.4-.438-.088Z" transform="translate(-78.365 -277.991)" fill="rgba(46,69,246,0.09)"/>
    <path id="rgba_46_69_246_0.09_69" data-name="rgba(46,69,246,0.09)" d="M407.5,343l.963.088-.963.088Z" transform="translate(-336.147 -282.941)" fill="rgba(46,69,246,0.09)"/>
    <path id="rgba_46_69_246_0.09_70" data-name="rgba(46,69,246,0.09)" d="M410.5,345l.438.088-.438.088Z" transform="translate(-338.621 -284.59)" fill="rgba(46,69,246,0.09)"/>
    <path id="rgba_46_69_246_0.09_71" data-name="rgba(46,69,246,0.09)" d="M415.85,345l.263.088-.613.263v-.175Z" transform="translate(-342.746 -284.59)" fill="rgba(46,69,246,0.09)"/>
    <path id="rgba_46_69_246_0.09_72" data-name="rgba(46,69,246,0.09)" d="M418.438,346l.438.263-.088.438-.788-.438Z" transform="translate(-344.808 -285.415)" fill="rgba(46,69,246,0.09)"/>
    <path id="rgba_46_69_246_0.09_73" data-name="rgba(46,69,246,0.09)" d="M408.5,364l.438.088-.438.088Z" transform="translate(-336.972 -300.264)" fill="rgba(46,69,246,0.09)"/>
    <path id="rgba_46_69_246_0.09_74" data-name="rgba(46,69,246,0.09)" d="M298.5,365l19,.088-19,.088Z" transform="translate(-246.233 -301.088)" fill="rgba(46,69,246,0.09)"/>
    <path id="rgba_46_69_246_0.09_75" data-name="rgba(46,69,246,0.09)" d="M412.438,366l.175.525.35-.175.963.963q-.473.3.263.613l.35-.175,1.138,1.138q-.385.228.088.438l.35.175.175-.175.963.963q-.49.315.263.613l.35-.175L419,371.866q-.473.315.263.613l.35-.175,1.138,1.138q-.385.21.088.438l.35.175.175-.175.963.963q-.49.315.263.613l.35-.175,1.138,1.138q-.473.315.263.613l.35-.175.963.963-.088.438L412.788,366.7l-.788-.438Z" transform="translate(-339.859 -301.913)" fill="rgba(46,69,246,0.09)"/>
    <path id="rgba_46_69_246_0.09_76" data-name="rgba(46,69,246,0.09)" d="M503.488,428l.263.613-1.313,1.138-.438-.263,1.313-.963.263.088Z" transform="translate(-414.1 -353.057)" fill="rgba(46,69,246,0.09)"/>
    <path id="rgba_46_69_246_0.09_77" data-name="rgba(46,69,246,0.09)" d="M491.263,435v.35l.525-.175v.175l-.263.088.35.175-.263.088-.613-.438Z" transform="translate(-405.026 -358.831)" fill="rgba(46,69,246,0.09)"/>
    <path id="rgba_46_69_246_0.09_78" data-name="rgba(46,69,246,0.09)" d="M497.5,437l.438.088-.438.088Z" transform="translate(-410.388 -360.481)" fill="rgba(46,69,246,0.09)"/>
    <path id="rgba_105_172_253_0.04_" data-name="rgba(105,172,253,0.04)" d="M25.5,212l.613.088-.613.088Z" transform="translate(-21.035 -174.879)" fill="rgba(105,172,253,0.04)"/>
    <path id="rgba_105_172_253_0.04_2" data-name="rgba(105,172,253,0.04)" d="M19.438,213l.963.263-.438.088-.525-.175v.175l.263.088-.263.088L19,213.263Z" transform="translate(-15.673 -175.704)" fill="rgba(105,172,253,0.04)"/>
    <path id="rgba_105_172_253_0.04_3" data-name="rgba(105,172,253,0.04)" d="M31.5,213l7.267.088-7.267.088Z" transform="translate(-25.984 -175.704)" fill="rgba(105,172,253,0.04)"/>
    <path id="rgba_105_172_253_0.04_4" data-name="rgba(105,172,253,0.04)" d="M14.613,215v.525l-.35-.175v.35q-.525-.263,0-.525Z" transform="translate(-11.549 -177.353)" fill="rgba(105,172,253,0.04)"/>
    <path id="rgba_105_172_253_0.04_5" data-name="rgba(105,172,253,0.04)" d="M6.313,218l.088.438-.963.963L5,219.313Z" transform="translate(-4.124 -179.828)" fill="rgba(105,172,253,0.04)"/>
    <path id="rgba_105_172_253_0.04_6" data-name="rgba(105,172,253,0.04)" d="M3.263,227l.175.35L3,227.263Z" transform="translate(-2.475 -187.252)" fill="rgba(105,172,253,0.04)"/>
    <path id="rgba_105_172_253_0.04_7" data-name="rgba(105,172,253,0.04)" d="M.263,232l.263.438H.175l-.088.263L0,232.438Z" transform="translate(0 -191.377)" fill="rgba(105,172,253,0.04)"/>
    <path id="rgba_105_172_253_0.04_8" data-name="rgba(105,172,253,0.04)" d="M.088,242l.088,40.01H0Z" transform="translate(0 -199.626)" fill="rgba(105,172,253,0.04)"/>
    <path id="rgba_105_172_253_0.04_9" data-name="rgba(105,172,253,0.04)" d="M296.088,364l.088,7.967H296Z" transform="translate(-244.17 -300.264)" fill="rgba(105,172,253,0.04)"/>
    <path id="rgba_105_172_253_0.04_10" data-name="rgba(105,172,253,0.04)" d="M287.189,411l.088.613a6.313,6.313,0,0,1-2.189,3.239l-.088-.438.788-.788.263.088-.175-.35.525-.175-.175-.35h.35l-.175-.35h.35l-.175-.525h.175l.088.263.088-.438-.175-.35h.175l.088.263Z" transform="translate(-235.096 -339.034)" fill="rgba(105,172,253,0.04)"/>
    <path id="rgba_105_172_253_0.04_11" data-name="rgba(105,172,253,0.04)" d="M281.263,432q.525.263,0,.525Q280.737,432.263,281.263,432Z" transform="translate(-231.797 -356.357)" fill="rgba(105,172,253,0.04)"/>
    <path id="rgba_105_172_253_0.04_12" data-name="rgba(105,172,253,0.04)" d="M269.189,434q.525.263,0,.525l-1.226.35-.963-.263.788-.088.525.175v-.175l-.263-.088.263-.088.525.175v-.175l-.263-.088.263-.088.35.175Z" transform="translate(-220.248 -358.007)" fill="rgba(105,172,253,0.04)"/>
    <path id="rgba_105_172_253_0.04_13" data-name="rgba(105,172,253,0.04)" d="M69.5,438l.525.175,34.757.088-34.757.088-.525-.175Z" transform="translate(-57.331 -361.306)" fill="rgba(105,172,253,0.04)"/>
    <path id="rgba_105_172_253_0.04_14" data-name="rgba(105,172,253,0.04)" d="M25.018,439l.613.263-1.138.438-7.354,6.654-.7.35L16,446.442l.263-.088.35.175.175-.525.35.175q.49-.21.088-.438l.963-.963.35.175q.753-.315.263-.613l.788-.788h.35l.613-.438-.175-.175.788-.788h.35l.438-.263-.175-.175.963-.963h.35l.438-.263-.175-.175.788-.788h.35l.263-.088-.088-.263.35.175Z" transform="translate(-13.198 -362.131)" fill="rgba(105,172,253,0.04)"/>
    <path id="rgba_105_172_253_0.04_15" data-name="rgba(105,172,253,0.04)" d="M.5,475l.438.088-.175.35q.35-.3.7.35l-.088.263.35-.175v.35l.525-.175v.175l-.263.088,1.4.175-1.313.088L.588,475.438Z" transform="translate(-0.412 -391.827)" fill="rgba(105,172,253,0.04)"/>
    <path id="rgba_110_170_245_0.88_" data-name="rgba(110,170,245,0.88)" d="M27.5,214l8.317.088-8.317.088Z" transform="translate(-22.685 -176.529)" fill="rgba(110,170,245,0.88)"/>
    <path id="rgba_110_170_245_0.88_2" data-name="rgba(110,170,245,0.88)" d="M12.85,219l-.35.525Z" transform="translate(-10.311 -180.653)" fill="rgba(110,170,245,0.88)"/>
    <path id="rgba_110_170_245_0.88_3" data-name="rgba(110,170,245,0.88)" d="M6.85,225l-.35.525Z" transform="translate(-5.362 -185.602)" fill="rgba(110,170,245,0.88)"/>
    <path id="rgba_110_170_245_0.88_4" data-name="rgba(110,170,245,0.88)" d="M1.088,239l.088,40.886H1Z" transform="translate(-0.825 -197.151)" fill="rgba(110,170,245,0.88)"/>
    <path id="rgba_110_170_245_0.88_5" data-name="rgba(110,170,245,0.88)" d="M295.088,364l.088,8.492H295Z" transform="translate(-243.345 -300.264)" fill="rgba(110,170,245,0.88)"/>
    <path id="rgba_110_170_245_0.88_6" data-name="rgba(110,170,245,0.88)" d="M290.675,422l-.175.35Z" transform="translate(-239.633 -348.108)" fill="rgba(110,170,245,0.88)"/>
    <path id="rgba_110_170_245_0.88_7" data-name="rgba(110,170,245,0.88)" d="M284.551,425l-1.051,1.226Z" transform="translate(-233.859 -350.582)" fill="rgba(110,170,245,0.88)"/>
    <path id="rgba_110_170_245_0.88_8" data-name="rgba(110,170,245,0.88)" d="M278.2,432l-.175.35-.525.175v-.175Z" transform="translate(-228.91 -356.357)" fill="rgba(110,170,245,0.88)"/>
    <path id="rgba_110_170_245_0.88_9" data-name="rgba(110,170,245,0.88)" d="M71.5,437l34.232.088-34.232.088Z" transform="translate(-58.98 -360.481)" fill="rgba(110,170,245,0.88)"/>
    <path id="rgba_110_170_245_0.88_10" data-name="rgba(110,170,245,0.88)" d="M63.675,440l-.175.35Z" transform="translate(-52.381 -362.956)" fill="rgba(110,170,245,0.88)"/>
    <path id="rgba_110_170_245_0.88_11" data-name="rgba(110,170,245,0.88)" d="M56.375,443l-.876,1.051Z" transform="translate(-45.782 -365.431)" fill="rgba(110,170,245,0.88)"/>
    <path id="rgba_110_170_245_0.88_12" data-name="rgba(110,170,245,0.88)" d="M47.375,451l-.875,1.051Z" transform="translate(-38.358 -372.03)" fill="rgba(110,170,245,0.88)"/>
    <path id="rgba_110_170_245_0.88_13" data-name="rgba(110,170,245,0.88)" d="M38.375,459l-.875,1.051Z" transform="translate(-30.934 -378.629)" fill="rgba(110,170,245,0.88)"/>
    <path id="rgba_110_170_245_0.88_14" data-name="rgba(110,170,245,0.88)" d="M30.2,467l-.7.875Z" transform="translate(-24.335 -385.228)" fill="rgba(110,170,245,0.88)"/>
    <path id="rgba_110_170_245_0.88_15" data-name="rgba(110,170,245,0.88)" d="M22.2,474l-.7.875Z" transform="translate(-17.735 -391.003)" fill="rgba(110,170,245,0.88)"/>
    <path id="rgba_110_170_245_0.88_16" data-name="rgba(110,170,245,0.88)" d="M3.5,476l.525.7Z" transform="translate(-2.887 -392.652)" fill="rgba(110,170,245,0.88)"/>
    <path id="rgba_110_170_245_0.88_17" data-name="rgba(110,170,245,0.88)" d="M17.438,479l-.175.35L17,479.263Z" transform="translate(-14.023 -395.127)" fill="rgba(110,170,245,0.88)"/>
    <path id="rgba_110_170_245_0.88_18" data-name="rgba(110,170,245,0.88)" d="M11.5,481l.788.088-.788.088Z" transform="translate(-9.486 -396.777)" fill="rgba(110,170,245,0.88)"/>
    <path id="rgba_111_171_246_1_" data-name="rgba(111,171,246,1)" d="M6.115,215h8.667v21.625a4.943,4.943,0,0,0,2.189,3.414l1.226.7,1.576.35H53.3v8.667A5.5,5.5,0,0,1,51.116,253l-2.1.876H14.169l-1.926,1.051-7,6.3a2.2,2.2,0,0,1-1.926.35l-1.138-.963L2,260.263V218.94a5.792,5.792,0,0,1,1.663-2.714Z" transform="translate(-1.65 -177.353)" fill="#f9c22e"/>
  </g>
</svg>
